<svg id="Shape_1_Image" data-name="Shape 1 Image" xmlns="http://www.w3.org/2000/svg" viewBox="0 0 744.49 99.24"><defs><style>.cls-1{fill:#c99618;}.cls-2{font-size:90.45px;fill:#1d1d1b;stroke:#c99618;stroke-miterlimit:10;font-family:PlayfairDisplaySC-Bold, Playfair Display SC;font-weight:700;}.cls-3{letter-spacing:-0.01em;}.cls-4{letter-spacing:-0.01em;}.cls-5{letter-spacing:0em;}.cls-6{letter-spacing:0em;}</style></defs><path class="cls-1" d="M394.75,51.84a28,28,0,0,1,19.35-25.6,25,25,0,0,1,4.68-1.06c.91-.11,1.84-.17,2.75-.25h2.73l.16-.05h.1s.07.07.1.07c1.05.13,2.11.22,3.15.4a26.19,26.19,0,0,1,6.34,2l.1,0s0,0,0,0c-.58-.18-1.15-.39-1.73-.53-1-.25-2.07-.49-3.11-.68-.61-.12-1.25-.15-1.87-.22a19.55,19.55,0,0,0-2.86-.12c-.6,0-1.2,0-1.79.09-.83.08-1.65.16-2.47.32a31,31,0,0,0-3,.71,24.73,24.73,0,0,0-2.66.95,26.3,26.3,0,0,0-6.12,3.54c-.66.53-1.3,1.08-1.93,1.64a25.88,25.88,0,0,0-3.71,4.25,26.76,26.76,0,0,0-4.29,9.83c-.2,1-.35,1.9-.46,2.87a26.34,26.34,0,0,0-.12,4,25.8,25.8,0,0,0,.43,3.83,29.09,29.09,0,0,0,1,3.8,26.76,26.76,0,0,0,2.24,4.86,26.7,26.7,0,0,0,4.71,6,27.2,27.2,0,0,0,4.87,3.68,26.89,26.89,0,0,0,5.83,2.58,23.84,23.84,0,0,0,3.44.8c.76.11,1.53.2,2.3.28a22.91,22.91,0,0,0,3.61.06,24.83,24.83,0,0,0,5-.73c.81-.21,1.6-.47,2.4-.71a.28.28,0,0,1,.13,0,10.47,10.47,0,0,1-1,.42c-.84.3-1.67.61-2.52.85s-1.81.46-2.72.66a15.64,15.64,0,0,1-1.67.25c-.72.08-1.45.13-2.18.19,0,0-.06,0-.09.07h-.21s0,0-.08,0h-1.78s-.05,0-.08,0h-.17s-.08-.07-.12-.07a28.08,28.08,0,0,1-10.16-2.41,27.87,27.87,0,0,1-16.47-23.69s-.05-.08-.07-.12v-.07a.21.21,0,0,0,0-.11c0-.17,0-.34,0-.52Zm35.9,27.66C422.31,81,414.7,79.35,408.07,74A26.64,26.64,0,0,1,397.89,53.1c.09-8.61,3.33-15.78,10-21.25s14.34-7.16,22.74-5.65a27.7,27.7,0,0,0-30.28,10.13,26.92,26.92,0,0,0-5.39,18.14,27.8,27.8,0,0,0,22.67,25.71A27.55,27.55,0,0,0,430.65,79.5Zm.14,0v0h-.06v0Zm-.05-53.22v0h.06Z"/><path class="cls-1" d="M423.86,24.93h-2.33s0,0,0,0h2.32Z"/><path class="cls-1" d="M425.54,49.76l1.4.08L429,50l1.32.07,2.08.14,1.33.08,2.05.13,1.31.08,2.09.13,1.3.08,2.11.13,1.26.08L446,51l1.27.07,2.13.14,1.25.07,2.16.14,1.26.07,2.15.14,1.26.07,2.15.14,1.26.07,2.14.14,1.28.07,2.13.14,1.23.07,2.2.14,1.33.07,2.07.14,1.3.07c.24,0,.48,0,.72.08l-1.16.06L472.3,53l-.92.07-1.47.1-.78,0-1.51.11c-.29,0-.58,0-.87,0l-1.41.11c-.26,0-.52,0-.78,0l-1.47.11c-.26,0-.52,0-.78,0l-1.51.11-.86,0-1.84.11-1,.07-1.37.1-.78,0-1.51.11-.83,0-1.86.11-1.06.07-1.33.1c-.24,0-.48,0-.72,0l-1,.08-.59,0-1.46.07-1.37.11c-.24,0-.48,0-.71,0L441,55l-.63,0-1.49.08-1.7.1-1.15.07-1.7.11-1.7.1-1.7.11-1.11.07-1.35.1-.85,0-1.39.1c-.28,0-.57,0-.85,0-.44,0-.87,0-1.31.08-.2,0-.39.12-.59.16a3.34,3.34,0,0,1-2.84-.62,3.26,3.26,0,0,1-1.23-2,3.81,3.81,0,0,1,.1-1.77,8.79,8.79,0,0,0,.21-1.14c.1-.57.2-1.15.29-1.73s.21-1.18.31-1.77.23-1.32.34-2,.19-1.17.29-1.75.23-1.32.34-2l.33-2c.11-.65.23-1.31.34-2s.19-1.18.29-1.77.23-1.3.34-2c0-.22.07-.45.11-.68h0Q424.13,41.43,425.54,49.76Zm-.16,0c0-.06,0-.12,0-.18-.18-1.1-.37-2.2-.56-3.29L424,41.33c-.18-1.08-.37-2.16-.55-3.24l-.51-3c-.06-.37-.13-.73-.2-1.1l0,0a0,0,0,0,1,0,0l-.45,2.71-.63,3.66c-.18,1.06-.36,2.12-.53,3.18s-.39,2.27-.58,3.41-.34,2-.52,3c-.12.71-.27,1.42-.4,2.13,0,.24-.06.49-.08.73s0,.32,0,.47a3.21,3.21,0,0,0,3.78,2.77c.24,0,.47-.14.71-.18s.63,0,.95-.07l2.83-.17,2.84-.18,2.85-.17,2.85-.18,2.24-.14,2.87-.18,2.25-.14,2.87-.17,2.22-.14,2.87-.18,2.28-.14,2.81-.17,2.85-.18,2.28-.14,2.87-.18,2.22-.14,2.87-.17,2.62-.15.62,0v0h-.5l-.1,0-1.75-.11-2.22-.14-2.87-.17-2.26-.14-2.87-.18-2.8-.18-2.85-.17-2.28-.14-2.81-.18-2.85-.17L444,51l-2.27-.14-2.82-.18-2.85-.17-2.27-.14L431,50.23l-2.23-.14-3.09-.18A.24.24,0,0,1,425.38,49.74Z"/><path class="cls-1" d="M430.65,79.5a27.55,27.55,0,0,1-13,.68,27.8,27.8,0,0,1-22.67-25.71,26.92,26.92,0,0,1,5.39-18.14A27.7,27.7,0,0,1,430.61,26.2c-8.4-1.51-16.08.18-22.74,5.65s-9.89,12.64-10,21.25A26.64,26.64,0,0,0,408.07,74C414.7,79.35,422.31,81,430.65,79.5Z"/><path class="cls-1" d="M430.79,79.45h-.06v0h.06Z"/><path class="cls-1" d="M430.74,26.23l.05,0h-.06Z"/><path class="cls-1" d="M419.47,52.83c0-.24,0-.49.08-.73.13-.71.28-1.42.4-2.13.18-1,.34-2,.52-3s.38-2.28.58-3.41.35-2.12.53-3.18l.63-3.66.45-2.71a0,0,0,0,0,0,0l0,0V49.34c0,.11,0,.15.14.15a2.84,2.84,0,0,1,.51,0,10.59,10.59,0,0,0,2,.2.24.24,0,0,0,.26.17l3.09.18,2.23.14,2.86.18,2.27.14,2.85.17,2.82.18L444,51l2.86.18,2.85.17,2.81.18,2.28.14,2.85.17,2.8.18,2.87.18,2.26.14,2.87.17,2.22.14,1.75.11.1,0h-48l0-.19a1.83,1.83,0,0,0-3.63.19Z"/><path class="cls-1" d="M424.52,52.83h48.53v0l-.62,0-2.62.15-2.87.17-2.22.14-2.87.18-2.28.14-2.85.18-2.81.17-2.28.14-2.87.18-2.22.14-2.87.17-2.25.14-2.87.18-2.24.14-2.85.18-2.85.17-2.84.18-2.83.17c-.32,0-.63,0-.95.07s-.47.13-.71.18a3.21,3.21,0,0,1-3.78-2.77c0-.15,0-.31,0-.47h1.39c0,.14,0,.27.05.4a1.82,1.82,0,0,0,2.22,1.39A1.84,1.84,0,0,0,424.52,52.83Z"/><path class="cls-1" d="M425.38,49.74a10.59,10.59,0,0,1-2-.2,2.84,2.84,0,0,0-.51,0c-.11,0-.16,0-.14-.15V34c.07.37.14.73.2,1.1l.51,3c.18,1.08.37,2.16.55,3.24l.84,4.94c.19,1.09.38,2.19.56,3.29C425.37,49.62,425.37,49.68,425.38,49.74Z"/><path class="cls-1" d="M424.52,52.83a1.84,1.84,0,0,1-1.39,1.79,1.82,1.82,0,0,1-2.22-1.39c0-.13,0-.26-.05-.4a1.83,1.83,0,0,1,3.63-.19Zm-1.84,1.69a1.65,1.65,0,1,0,0-3.3A1.69,1.69,0,0,0,421,52.88,1.67,1.67,0,0,0,422.68,54.52Z"/><text class="cls-2" transform="translate(0 77.25)">C<tspan class="cls-3" x="63.82" y="0">o</tspan><tspan x="131.7" y="0">mi</tspan><tspan class="cls-4" x="245.12" y="0">n</tspan><tspan class="cls-5" x="306.42" y="0">g </tspan></text><text class="cls-2" transform="translate(492.7 77.25)">So<tspan class="cls-3" x="121.5" y="0">o</tspan><tspan class="cls-6" x="189.38" y="0">n</tspan></text></svg>