<svg id="Shape_1_Image" data-name="Shape 1 Image" xmlns="http://www.w3.org/2000/svg" viewBox="0 0 1000 242.85"><defs><style>.cls-1{fill:#9b948f;}.cls-2{fill:#b8b2b1;}.cls-3{fill:#9a9490;}.cls-4{fill:#c99618;}.cls-5{fill:#98721d;}.cls-6{fill:#c89618;}.cls-7{fill:#99928e;}.cls-8{font-size:109.61px;fill:#1d1d1b;stroke:#c99618;stroke-miterlimit:10;font-family:PlayfairDisplay-Black, Playfair Display;font-weight:800;}.cls-9{letter-spacing:-0.01em;}.cls-10{letter-spacing:-0.01em;}.cls-11{letter-spacing:-0.01em;}</style></defs><path class="cls-1" d="M511.78,119.43a54.34,54.34,0,0,1,11.94-32.2,54.75,54.75,0,0,1,25.9-17.89,48.8,48.8,0,0,1,9.16-2.08c1.79-.22,3.59-.33,5.39-.49h4.55c.26,0,.52,0,.78,0a1.25,1.25,0,0,0,.32-.08h.2c.06,0,.12.13.19.13,2,.27,4.12.44,6.15.79a50.9,50.9,0,0,1,12.41,3.85,1.39,1.39,0,0,0,.19.06l0,0c-1.12-.35-2.23-.75-3.37-1-2-.49-4.05-1-6.09-1.34-1.2-.23-2.44-.28-3.66-.43a40.15,40.15,0,0,0-5.59-.23c-1.17,0-2.35,0-3.51.17-1.61.16-3.23.32-4.82.63-2,.38-4,.82-5.94,1.39a51.1,51.1,0,0,0-5.2,1.86c-1.48.6-2.94,1.3-4.36,2a46.77,46.77,0,0,0-7.61,4.9q-1.94,1.55-3.78,3.21A50.92,50.92,0,0,0,527.79,91a52,52,0,0,0-4.58,7.88,51.48,51.48,0,0,0-3.81,11.34c-.39,1.86-.68,3.73-.89,5.62a51.71,51.71,0,0,0-.25,7.77,50.83,50.83,0,0,0,.86,7.49,52,52,0,0,0,6.32,16.94,53.9,53.9,0,0,0,4.76,6.84,49.4,49.4,0,0,0,4.46,4.8,53.48,53.48,0,0,0,9.53,7.2,52.36,52.36,0,0,0,11.41,5,44.28,44.28,0,0,0,6.72,1.57c1.5.22,3,.4,4.51.56a46.24,46.24,0,0,0,7.06.12,48.13,48.13,0,0,0,9.77-1.45c1.59-.41,3.14-.92,4.71-1.38a.33.33,0,0,1,.24,0c-.64.28-1.27.59-1.93.82-1.64.58-3.27,1.18-4.94,1.66s-3.53.9-5.31,1.28a32.46,32.46,0,0,1-3.26.5c-1.42.16-2.84.24-4.27.36-.06,0-.12.09-.18.14h-.42s-.1-.09-.15-.09h-3.48s-.1.06-.15.09h-.34c-.08-.05-.15-.13-.23-.14a54.26,54.26,0,0,1-19.88-4.7A54.76,54.76,0,0,1,513.2,134a53.6,53.6,0,0,1-1.35-9.09c0-.08-.09-.15-.14-.23v-.13a.6.6,0,0,0,.09-.22c0-.34,0-.68,0-1ZM582,173.52c-16.31,2.93-31.21-.28-44.18-10.74s-19.44-24.26-19.91-40.9c.17-16.83,6.51-30.87,19.52-41.57s28.06-14,44.49-11a54.21,54.21,0,0,0-59.25,19.81,54.4,54.4,0,0,0,4.1,69.54,53.07,53.07,0,0,0,29.71,16.26A54.05,54.05,0,0,0,582,173.52Zm.27-.08v0l-.12,0v0Zm-.1-104.13v.07l.11,0Z"/><path class="cls-2" d="M568.72,66.77h-4.55a.09.09,0,0,0,0-.07h4.54Z"/><path class="cls-3" d="M572,115.35l2.75.16c1.34.09,2.68.19,4,.27.86.06,1.73.09,2.6.15l4.06.26c.87.06,1.74.09,2.6.15,1.34.08,2.67.18,4,.27l2.57.14,4.1.27,2.53.14,4.13.27,2.47.14c1.4.09,2.8.19,4.2.27.83.06,1.67.09,2.5.15,1.39.08,2.78.18,4.17.27l2.43.14,4.23.27,2.47.14,4.2.27,2.46.14c1.4.09,2.8.19,4.21.27l2.46.15c1.4.08,2.8.18,4.2.27l2.5.14,4.17.27,2.39.14c1.44.09,2.87.19,4.31.27l2.6.15,4.07.26c.84.06,1.68.1,2.53.15a13.43,13.43,0,0,1,1.41.13l-2.27.14-3.6.21-1.8.12-2.88.22c-.51,0-1,0-1.53.06-1,.06-2,.15-2.95.21-.57,0-1.14,0-1.71.07-.91.06-1.82.15-2.74.21-.51,0-1,0-1.53.06l-2.88.21c-.51,0-1,0-1.53.07-1,.06-2,.15-3,.21-.55,0-1.11,0-1.66.07-1.21.06-2.41.14-3.61.21l-2,.13-2.67.21c-.51,0-1,0-1.54.06-1,.06-2,.15-3,.21-.54,0-1.09,0-1.63.07l-3.64.21-2.07.14-2.6.2-1.4.06-2,.15-1.15.07c-1,0-1.91.08-2.86.14s-1.78.14-2.68.2c-.46,0-.93,0-1.39.06l-3,.21-1.23.07-2.93.15-3.32.2-2.24.14-3.33.2-3.33.21-3.33.21-2.17.13-2.64.21c-.56,0-1.11,0-1.67.07-.9,0-1.81.14-2.71.2-.56,0-1.11,0-1.67.07-.85,0-1.7.07-2.55.15a9.8,9.8,0,0,0-1.15.31,6.47,6.47,0,0,1-5.56-1.22,6.34,6.34,0,0,1-2.41-3.9,7.43,7.43,0,0,1,.19-3.47,20.69,20.69,0,0,0,.42-2.22l.57-3.4.6-3.46.66-3.86c.19-1.15.38-2.29.58-3.44l.66-3.86c.22-1.29.43-2.58.64-3.87s.45-2.55.66-3.82.39-2.32.58-3.47l.66-3.83c.08-.44.14-.89.21-1.33h.09Q569.23,99.06,572,115.35Zm-.32,0c0-.11,0-.23,0-.34q-.54-3.22-1.1-6.45-.81-4.82-1.64-9.65c-.36-2.11-.73-4.23-1.08-6.34-.34-2-.66-3.92-1-5.88-.12-.71-.27-1.43-.4-2.14l-.05-.06a.14.14,0,0,0,0,.06l-.9,5.3c-.4,2.39-.8,4.77-1.21,7.16q-.53,3.11-1.06,6.21-.56,3.35-1.13,6.69-.5,3-1,5.91c-.25,1.39-.54,2.77-.79,4.16-.09.47-.11,1-.16,1.43,0,.31,0,.62,0,.92a6.31,6.31,0,0,0,7.41,5.42c.47-.1.92-.28,1.39-.35s1.23-.1,1.85-.14l5.54-.34,5.55-.35,5.58-.34,5.58-.34,4.38-.28,5.61-.34,4.41-.28,5.62-.34,4.34-.27,5.61-.35,4.45-.27,5.51-.35,5.58-.34,4.45-.28,5.61-.34,4.35-.27,5.61-.35,5.14-.3,1.21-.09v0h-1l-.19-.06c-1.14-.07-2.29-.13-3.43-.21l-4.34-.27-5.62-.34-4.41-.28-5.62-.34-5.47-.34-5.58-.35-4.45-.27-5.51-.35-5.58-.34-5.58-.35-4.45-.27-5.51-.34-5.58-.35-4.45-.27-5.58-.35-4.38-.27-6-.35A.51.51,0,0,1,571.69,115.3Z"/><path class="cls-4" d="M582,173.52a54.05,54.05,0,0,1-25.52,1.35,54.42,54.42,0,0,1-44.35-50.3,52.77,52.77,0,0,1,10.54-35.5,54.21,54.21,0,0,1,59.25-19.81c-16.43-3-31.47.35-44.49,11s-19.35,24.74-19.52,41.57c.47,16.64,6.94,30.45,19.91,40.9S565.7,176.45,582,173.52Z"/><path class="cls-4" d="M582.28,173.44l-.11,0v0l.12,0Z"/><path class="cls-4" d="M582.18,69.31l.1,0-.11,0Z"/><path class="cls-5" d="M560.13,121.36c0-.47.07-1,.16-1.43.25-1.39.54-2.77.79-4.16q.51-3,1-5.91.57-3.35,1.13-6.69.54-3.11,1.06-6.21c.41-2.39.81-4.77,1.21-7.16l.9-5.3a.14.14,0,0,1,0-.06l.05.06v30a.17.17,0,0,1,0,.07c0,.22.06.3.29.3a4.1,4.1,0,0,1,1,.09,20.31,20.31,0,0,0,4,.38.51.51,0,0,0,.52.35l6,.35,4.38.27,5.58.35,4.45.27,5.58.35,5.51.34,4.45.27,5.58.35,5.58.34,5.51.35,4.45.27,5.58.35,5.47.34,5.62.34,4.41.28,5.62.34,4.34.27c1.14.08,2.29.14,3.43.21l.19.06H570c0-.12,0-.25-.06-.37a3.57,3.57,0,0,0-7.1.37Z"/><path class="cls-6" d="M570,121.36H665v0l-1.21.09-5.14.3-5.61.35-4.35.27-5.61.34-4.45.28-5.58.34-5.51.35-4.45.27-5.61.35-4.34.27-5.62.34-4.41.28-5.61.34-4.38.28-5.58.34-5.58.34-5.55.35-5.54.34c-.62,0-1.24.05-1.85.14s-.92.25-1.39.35a6.31,6.31,0,0,1-7.41-5.42c0-.3,0-.61,0-.92h2.73a6.65,6.65,0,0,0,.09.78,3.56,3.56,0,0,0,4.35,2.71A3.61,3.61,0,0,0,570,121.36Z"/><path class="cls-4" d="M571.69,115.3a20.31,20.31,0,0,1-4-.38,4.1,4.1,0,0,0-1-.09c-.23,0-.31-.08-.29-.3a.17.17,0,0,0,0-.07v-30c.13.71.28,1.43.4,2.14.33,2,.65,3.92,1,5.88.35,2.11.72,4.23,1.08,6.34q.83,4.83,1.64,9.65.56,3.22,1.1,6.45C571.68,115.07,571.68,115.19,571.69,115.3Z"/><path class="cls-7" d="M570,121.36a3.61,3.61,0,0,1-2.72,3.49,3.56,3.56,0,0,1-4.35-2.71,6.65,6.65,0,0,1-.09-.78A3.57,3.57,0,0,1,570,121C570,121.11,570,121.24,570,121.36Zm-3.6,3.3a3.23,3.23,0,1,0,0-6.45,3.23,3.23,0,1,0,0,6.45Z"/><text class="cls-8" transform="translate(0 160.31)">C<tspan class="cls-9" x="78.57" y="0">O</tspan><tspan x="168.37" y="0">MI</tspan><tspan class="cls-10" x="318.06" y="0">N</tspan><tspan x="397.54" y="0">G</tspan></text><text class="cls-8" transform="translate(671.87 160.31)">SO<tspan class="cls-11" x="157.83" y="0">O</tspan><tspan x="247.63" y="0">N</tspan></text></svg>