<svg xmlns="http://www.w3.org/2000/svg" width="51.9322mm" height="19.735mm" viewBox="0 0 147.2095 55.9418"><defs><style>.cls-1{fill:#9b948f;}.cls-2{fill:#b8b2b1;}.cls-3{fill:#9a9490;}.cls-4{fill:#9b9491;}.cls-5{fill:#9c9592;}.cls-6{fill:#99938f;}.cls-7{fill:#9a9390;}.cls-8{fill:#c99618;}.cls-9{fill:#98721d;}.cls-10{fill:#c89618;}.cls-11{fill:#c89619;}.cls-12{fill:#c8961d;}.cls-13{fill:#c29532;}.cls-14{fill:#c8961a;}.cls-15{fill:#c8961c;}.cls-16{fill:#c69623;}.cls-17{fill:#c49629;}.cls-18{fill:#99928e;}</style></defs><g id="Layer_2" data-name="Layer 2"><g id="Shape_1_Image" data-name="Shape 1 Image"><path class="cls-1" d="M.032,26.95A27.811,27.811,0,0,1,6.1342,10.4929,28.0175,28.0175,0,0,1,19.3778,1.3465,25.0493,25.0493,0,0,1,24.0557.284c.916-.1115,1.8386-.1689,2.7582-.2507l2.323.0013c.1334.0031.2669.0107.4.0071A.7291.7291,0,0,0,29.6985,0h.1054c.0318.0234.0614.0633.0955.0677,1.0489.133,2.1053.2211,3.1458.4012A26.283,26.283,0,0,1,39.3884,2.436a.7377.7377,0,0,0,.0976.0291.0362.0362,0,0,0,.009.0185c-.5745-.1774-1.1421-.3834-1.7251-.5258C36.739,1.706,35.703,1.47,34.6607,1.2722c-.6156-.1171-1.2481-.1435-1.8718-.22a20.5344,20.5344,0,0,0-2.86-.1191c-.5986.01-1.199.0294-1.7943.0885-.8234.0818-1.65.1655-2.4617.32-1.0211.1948-2.04.4218-3.0379.7106a27.1464,27.1464,0,0,0-2.6554.95c-.76.3085-1.5016.6661-2.2312,1.0414a23.6458,23.6458,0,0,0-3.8874,2.5026c-.6619.5251-1.306,1.0751-1.9319,1.6428A25.7012,25.7012,0,0,0,8.2182,12.44a26.69,26.69,0,0,0-4.2915,9.8233c-.2.95-.3478,1.9072-.4555,2.8725A26.7316,26.7316,0,0,0,3.3465,29.11a25.7533,25.7533,0,0,0,.4375,3.83,27.26,27.26,0,0,0,.9981,3.8,26.9138,26.9138,0,0,0,2.2352,4.8573A27.7474,27.7474,0,0,0,9.45,45.0931a25.7247,25.7247,0,0,0,2.2766,2.4516A27.2072,27.2072,0,0,0,16.6,51.2255a26.86,26.86,0,0,0,5.831,2.5782,23.5008,23.5008,0,0,0,3.4379.803c.7653.1122,1.5344.2021,2.3037.2836a23.559,23.559,0,0,0,3.6109.06,24.6355,24.6355,0,0,0,4.9922-.7382c.81-.2091,1.6057-.47,2.4082-.707a.1686.1686,0,0,1,.1213.0055c-.3287.141-.6509.3-.9874.4192-.8368.2959-1.671.6049-2.5233.8495-.894.2565-1.8043.4605-2.7143.6556a16.3741,16.3741,0,0,1-1.667.2542c-.7252.0787-1.454.1228-2.181.1856-.0336.0029-.0638.0439-.0957.0671h-.2108c-.0254-.0149-.0506-.0429-.076-.043q-.8913-.0041-1.7827-.0008c-.0248,0-.05.0286-.0744.0438h-.1757c-.0386-.0232-.0764-.0654-.1159-.067a27.8487,27.8487,0,0,1-17.0721-6.824A27.9306,27.9306,0,0,1,.761,34.4178,27.45,27.45,0,0,1,.0674,29.775c-.0025-.04-.0441-.0783-.0674-.1174v-.07a.3232.3232,0,0,0,.0431-.1081c0-.174-.0067-.348-.0111-.522ZM35.9293,54.6008c-8.3358,1.4986-15.9511-.143-22.5793-5.4886A26.6287,26.6287,0,0,1,3.17,28.2048a26.613,26.613,0,0,1,9.9814-21.25C19.8042,1.4867,27.4909-.2092,35.8892,1.3058a27.7052,27.7052,0,0,0-30.2826,10.13A26.9536,26.9536,0,0,0,.2156,29.5789a27.0594,27.0594,0,0,0,7.4829,17.4,27.1671,27.1671,0,0,0,15.1888,8.3114A27.62,27.62,0,0,0,35.9293,54.6008Zm.1419-.0411-.004-.0213-.0578.012.0037.0194Zm-.0548-53.226-.0054.0337.0588-.0113Z"/><path class="cls-2" d="M29.1369.0346,26.8139.0333A.04.04,0,0,0,26.8165,0h2.32Z"/><path class="cls-3" d="M30.8186,24.8665c.4853.0286.9454.0536,1.4052.0833.687.0443,1.3737.0939,2.0608.1373.4428.0279.8862.0455,1.329.0733.693.0436,1.3855.0939,2.0785.1375.4428.0278.8862.0453,1.329.0734.6812.0433,1.362.0938,2.0432.1373.4369.0278.8745.0456,1.3114.073.6988.0439,1.3973.0937,2.096.1378.4312.0272.8628.0459,1.2939.073.7047.0442,1.409.0933,2.1136.1379.4194.0265.8393.0465,1.2587.0727.7163.0448,1.4324.0934,2.1487.138.4253.0265.851.0463,1.2763.0729.7105.0445,1.4207.0931,2.1312.138.4136.0261.8275.0469,1.2411.0727.7221.0451,1.4441.0931,2.1662.138.4195.0261.8393.0467,1.2588.0729.7163.0448,1.4324.093,2.1487.1378.4194.0262.8392.0468,1.2587.0731.7163.0447,1.4324.0929,2.1487.1377.4194.0262.8393.0469,1.2587.0731.7163.0447,1.4324.093,2.1487.1375.4253.0265.851.0468,1.2763.0734.7105.0444,1.4207.0925,2.1311.1375.4078.0258.8159.0477,1.2237.0731.7338.0456,1.4674.094,2.2013.1384.4429.0269.8863.0454,1.3291.0732.6929.0436,1.3855.0935,2.0784.1375.4311.0273.8626.0477,1.2939.0727a6.88,6.88,0,0,1,.7235.0706q-.5807.0333-1.1615.0668-.9207.0543-1.8414.11c-.3059.0189-.6116.0411-.9173.0635-.491.036-.9818.0767-1.4732.109-.2605.0172-.5222.0147-.7828.0317-.503.0329-1.0052.0769-1.5083.1091-.29.0186-.5808.0165-.8705.0352-.468.03-.9352.0735-1.4031.1048-.2605.0175-.5222.0165-.7827.0338-.4913.0324-.9819.0752-1.4733.1073-.2605.0171-.5222.0148-.7827.0318-.503.0328-1.0053.0765-1.5084.1089-.2839.0182-.5689.0186-.853.0343-.614.0337-1.2277.0714-1.8414.1089-.3409.0208-.6819.0424-1.0226.0675-.456.0335-.9116.0743-1.3679.1049-.26.0175-.5223.0147-.7828.0318-.503.0329-1.0053.0767-1.5084.1094-.278.018-.5572.0187-.8355.0339-.62.0341-1.2393.0717-1.8588.1092-.3527.0214-.7054.0428-1.0577.0687-.4444.0326-.8883.0729-1.3328.1035-.2371.0163-.4755.0144-.7127.0295-.3355.0213-.67.0519-1.0057.0765q-.2949.0216-.59.0365c-.487.0242-.9744.041-1.461.0709-.4563.0281-.9117.0724-1.3679.1035-.2371.0161-.4754.0135-.7126.0292-.5088.0338-1.0171.075-1.5258.1111-.2083.0148-.4169.0253-.6255.0356-.4987.0248-.9976.0453-1.4962.0731-.5671.0317-1.1339.07-1.7008.1046q-.5729.0354-1.1456.07-.85.0525-1.7008.1054l-1.7008.1054q-.8505.0526-1.7009.1053c-.37.023-.7405.0439-1.11.07-.45.0324-.9.0737-1.35.1033-.2839.0186-.5691.0163-.853.035-.4621.03-.9233.0744-1.3855.1049-.2838.0187-.5688.02-.853.0346-.4347.0222-.87.0361-1.3032.08a5.727,5.727,0,0,0-.5891.1546,3.3131,3.3131,0,0,1-2.8412-.62,3.25,3.25,0,0,1-1.23-1.9959,3.73,3.73,0,0,1,.0957-1.7727,10.4024,10.4024,0,0,0,.2134-1.1358c.1-.5786.1939-1.158.2925-1.7367.1005-.59.2038-1.18.305-1.77q.1692-.987.3367-1.9742c.0993-.5848.1969-1.17.2964-1.7546.112-.658.2265-1.3156.3378-1.9737s.219-1.3184.3307-1.9773c.1106-.6523.2253-1.3039.336-1.9562.1-.59.1962-1.1817.2967-1.7721.1111-.6524.2262-1.3042.3377-1.9565.0387-.2263.0718-.4536.1074-.68l.0451-.002Q29.4005,16.5379,30.8186,24.8665Zm-.1625-.0251c-.005-.0583-.0058-.1173-.0156-.1748q-.2789-1.6474-.56-3.2948-.42-2.4666-.84-4.9331c-.1844-1.0809-.3717-2.1614-.555-3.2425-.17-1.0007-.3339-2.0023-.5043-3.0028-.0624-.3665-.1355-.7312-.2037-1.0967l-.0255-.03a.2511.2511,0,0,0-.01.031q-.2293,1.3548-.4583,2.71-.31,1.8293-.621,3.6585-.27,1.5878-.5394,3.1754-.29,1.7085-.58,3.4172c-.1707,1.0068-.3357,2.0145-.5139,3.02-.1261.7119-.2751,1.42-.4033,2.1313-.0432.24-.0537.4858-.0791.7289.0084.1571.01.315.0264.4713a3.22,3.22,0,0,0,3.787,2.7684c.24-.0489.471-.1446.7118-.1788.3114-.0443.6284-.05.9432-.07q1.4168-.089,2.8339-.1761t2.8337-.1755q1.4258-.0882,2.8515-.176t2.8514-.1762q1.12-.0693,2.2391-.14,1.4344-.0888,2.8689-.1767,1.1283-.07,2.2566-.14,1.4346-.0885,2.8691-.1769,1.1106-.0689,2.2213-.1388,1.4344-.089,2.8689-.1767,1.1371-.07,2.2743-.1406,1.408-.0875,2.8162-.1752,1.4258-.0884,2.8514-.1761l2.2742-.14q1.4344-.0885,2.869-.1769,1.1106-.069,2.2213-.1389,1.4344-.089,2.8691-.1764c.875-.0521,1.75-.1,2.6254-.1513.2073-.0122.4144-.0306.6215-.0462l-.0006-.0234H77.825a.484.484,0,0,0-.0986-.0275c-.5832-.0368-1.1666-.0713-1.75-.1075q-1.1109-.0689-2.2217-.1392-1.4348-.089-2.87-.1765-1.1286-.07-2.257-.14-1.4348-.0887-2.8694-.1769-1.4-.0867-2.7992-.1745-1.4259-.0885-2.8519-.176-1.1371-.07-2.2745-.1407-1.4083-.0875-2.8166-.1752-1.4259-.0884-2.8519-.176l-2.8519-.1759q-1.1373-.07-2.2745-.1408-1.4083-.0875-2.8167-.1752-1.4259-.0884-2.8519-.1759l-2.2746-.14q-1.4259-.088-2.8518-.1762c-.7465-.0463-1.4928-.0944-2.2393-.1394-1.0267-.062-2.0535-.124-3.08-.18A.2577.2577,0,0,1,30.6561,24.8414Z"/><path class="cls-4" d="M108.6876,35.8261c.0591.2394-.0582.3333-.3318.3354-.7241.0053-.9181.1828-1.0079.8988a5.3573,5.3573,0,0,0-.0419.66q-.0042,4.0826-.0017,8.165c0,.0967-.0047.1941.0043.29.0815.8622.0206,1.1865,1.171,1.3457.094.013.1738.1288.26.1968l-.0672.1092c-.798,0-1.596-.0019-2.3939.0006-.5251.0017-1.05.0181-1.575.0086a1.34,1.34,0,0,1-.3777-.1249,2.1449,2.1449,0,0,1,.3534-.2332c.1368-.0572.3269-.0272.4316-.1119a1.4617,1.4617,0,0,0,.5089-.577,3.36,3.36,0,0,0,.09-1.0137q.0087-4.186.0027-8.3722a.288.288,0,0,0-.0894-.22c-.1523.38-.3127.7579-.4557,1.1418q-1.7206,4.6189-3.4421,9.2377a1.4894,1.4894,0,0,1-.3011.366,1.9639,1.9639,0,0,1-.2807-.3916c-.5427-1.3676-1.0739-2.74-1.6072-4.1112q-.7551-1.9415-1.5086-3.8833c-.3145-.8058-.6355-1.6091-1.0179-2.4063v.4245q0,4.2069,0,8.4137c0,1.0749.23,1.345,1.2831,1.5431.1009.019.1852.1253.2773.191-.0972.0448-.1939.1273-.2915.1284q-1.3884.0144-2.777-.0008c-.0967-.0011-.1924-.0863-.2886-.1324a1.34,1.34,0,0,1,.2756-.2283,5.6885,5.6885,0,0,0,.7061-.2774,1.1366,1.1366,0,0,0,.3932-1.0681q.0249-4.4141.005-8.8281c-.0032-.8735-.2387-1.0608-1.3589-1.1833a1.4138,1.4138,0,0,1-.0226-.19,1.0612,1.0612,0,0,1,.037-.1836c.9629,0,1.9136-.0066,2.8638.0111.088.0016.2144.1425.2536.2452.9373,2.456,1.8633,4.9163,2.7956,7.3743.27.7129.5538,1.4209.8628,2.2119.3148-.8259.6-1.5626.8767-2.3026q.6442-1.7241,1.2788-3.4518c.4608-1.2518.914-2.5066,1.3835-3.7551.0389-.1034.1765-.24.2705-.2415C106.77,35.819,107.7053,35.8261,108.6876,35.8261Zm-1.514.3175c-.2984,0-.6425-.0069-.9861.0021a.361.361,0,0,0-.3192.5639,1.1881,1.1881,0,0,1,.17.4937c-.0548,3.4055.1506,6.816-.1156,10.2251h1.2417a11.1326,11.1326,0,0,1-.1888-1.425q-.0263-4.2436.0006-8.4874A10.0977,10.0977,0,0,1,107.1736,36.1436Zm-10.4726-.058-.0589.1164c.1035.1238.1984.2563.3127.3693.1428.1412.3757.2369.4419.4031.7967,2,1.5689,4.009,2.3494,6.015.5583,1.4349,1.1194,2.8688,1.7088,4.3788.2027-.6771.7344-1.237.1673-1.901a.3864.3864,0,0,1-.0462-.1148q-1.7026-4.49-3.41-8.9773c-.0423-.111-.1534-.27-.242-.2764C97.5178,36.0689,97.1088,36.0856,96.701,36.0856Zm.4552,11.41-.3511-.51-.3167.51Z"/><path class="cls-5" d="M37.7492,35.78a.492.492,0,0,1,.1206-.0328c1.0354-.0018,2.0707-.0014,3.2523-.0014-.1339.1865-.19.3515-.2993.4022a1.8718,1.8718,0,0,0-1.0322,1.167q-1.1259,3.5194-2.2253,7.0472c-.3439,1.0964-.6724,2.1976-1.0209,3.2926-.0338.1062-.16.1833-.2425.2739-.08-.0953-.1956-.1781-.2336-.2879-.3913-1.13-.7694-2.2639-1.1522-3.3966q-.7844-2.3212-1.5708-4.642c-.03-.0894-.0711-.1754-.15-.3679-.16.4782-.2969.8634-.4175,1.2537q-.8908,2.883-1.7742,5.7685c-.1443.47-.2741.9455-.4328,1.4108-.0354.1036-.165.175-.2512.2613-.0742-.0815-.1847-.1507-.2174-.2464q-1.27-3.72-2.5262-7.4456c-.37-1.09-.7583-2.1751-1.12-3.2683a1.1621,1.1621,0,0,0-.8149-.7868c-.2793-.0792-.2765-.1924-.2071-.4161h3.7786c-.1553.1845-.2345.3677-.3287.3758-.5612.0484-.7372.27-.5589.9609.1468.5688.3458,1.1245.5288,1.6836q.9516,2.9085,1.9088,5.8151c.0375.1142.0841.2256.1555.4157.1582-.457.3015-.84.424-1.23q.7994-2.5455,1.587-5.0947a.4086.4086,0,0,0,.0221-.2354c-.2161-.6042-.4149-1.2173-.6813-1.7993-.0961-.21-.3667-.3373-.5477-.5126a4.0856,4.0856,0,0,1-.2964-.3774h3.9472c.0711.273-.0139.4187-.2964.3894-.7991-.0831-.9768.3347-.7633,1.0151.414,1.3195.8368,2.6363,1.2569,3.9538q.58,1.8191,1.1633,3.6372c.0157.0492.0438.0945.1089.2318.15-.43.2821-.7816.394-1.1393q.9279-2.9657,1.8455-5.9344a4.1523,4.1523,0,0,0,.1362-.5918.994.994,0,0,0-1.1183-1.18C37.8034,36.1582,37.6775,36.0883,37.7492,35.78Zm-11.3348.3309a13.6383,13.6383,0,0,1,.5908,1.2939c1.0676,3.1316,2.1168,6.27,3.1732,9.4049.04.1192.0937.2339.1786.4434.1143-.3683.1978-.6281.2752-.89a2.376,2.376,0,0,0,.2036-.7924,2.3184,2.3184,0,0,0-.3356-.7251.3228.3228,0,0,1-.0137-.0391c-.7411-2.252-1.4878-4.5022-2.2195-6.7573a2.7551,2.7551,0,0,1-.2243-1.9386Zm6.0114.0014a6.5078,6.5078,0,0,1,.8535,2.6741c-.0005.0416.0576.0817.0821.126a3.7676,3.7676,0,0,1,.3061.5732q1.2426,3.6425,2.47,7.29c.0443.1311.0971.2593.1848.492l.5365-1.7062a3.82,3.82,0,0,1-.4065-.6723q-1.1768-3.5766-2.3242-7.1627a1.9185,1.9185,0,0,1-.0645-1.6144Zm7.757.0087h-.9592l.3655.7756Z"/><path class="cls-6" d="M80.1217,47.5483c.2112-.0373.4125-.0693.6123-.1088a.8148.8148,0,0,0,.7813-.8461c.0446-.9923.0442-1.9867.0567-2.98.0066-.5351.0011-1.07.0011-1.6278H76.03c-.0157.0172-.05.0373-.05.0574-.0017,1.4358-.0357,2.8729.0127,4.3071.0306.9061.19,1.0057,1.1121,1.17.1033.0185.19.1285.2849.196l-.0668.1114c-.8673,0-1.7346-.0018-2.6019.0007-.4835.0014-.9671.0176-1.45.009-.0972-.0017-.193-.0852-.2894-.1309a1.0163,1.0163,0,0,1,.2392-.1925,4.5132,4.5132,0,0,0,.7263-.2537.8109.8109,0,0,0,.34-.4743,5.3037,5.3037,0,0,0,.0826-1.058q.0091-3.75,0-7.5c-.0012-.4643-.0328-.9293-.0688-1.3925a.8708.8708,0,0,0-.9323-.6923c-.1091-.0028-.2182,0-.364,0l-.0252-.3737c1.463,0,2.8935,0,4.324.0005.0519.3574.0346.38-.2936.3874-.7175.0155-.9761.1991-.9934.9073-.0366,1.5-.0111,3.0012-.0111,4.5269h5.54c.0094-.1132.0276-.2311.0278-.3491q.0029-1.8439-.0009-3.6879a4.4611,4.4611,0,0,0-.0388-.4944c-.0732-.6354-.28-.8709-1.0672-.8982-.278-.01-.4273-.0729-.3386-.3992h4.3975c.07.264.0155.4017-.2812.3972-.8456-.0127-1.0741.2776-1.0766,1.1338-.0085,2.97-.0033,5.9393-.0032,8.909,0,.96.1481,1.1318,1.0942,1.3137a1.0538,1.0538,0,0,1,.2972.1741c-.105.051-.21.1455-.3151.1464-1.2846.0113-2.5694.0053-3.854.013C80.16,47.8509,80.0452,47.7994,80.1217,47.5483Zm-4.2792-.0735a12.6875,12.6875,0,0,1-.2074-1.5931c-.0123-1.3784.0463-2.7573.0475-4.136.0011-1.1992-.0431-2.3984-.0566-3.5977a3.5074,3.5074,0,0,1,.3412-2.0324H74.4685a7.8968,7.8968,0,0,1,.225,1.3076c.0208,2.804.0091,5.6083.0124,8.4124a2.545,2.545,0,0,1-.3466,1.6392ZM81.71,36.1158a16,16,0,0,1,.1919,1.6434c.0253,1.5968.0091,3.1942.0091,4.7913,0,.967.0016,1.9339-.0006,2.9008a3.4112,3.4112,0,0,1-.3485,2.0233h1.4892A9.1778,9.1778,0,0,1,82.84,46.1q-.03-4.2888,0-8.578a9.4012,9.4012,0,0,1,.2148-1.4065Z"/><path class="cls-6" d="M126.4782,36.1493v-.3766h4.3311c.0761.2847-.0323.3845-.3085.3883-.7468.01-.9875.1854-1.0077.9329-.04,1.487-.0119,2.9758-.0119,4.4931h5.5721c0-.2586.0021-.5032,0-.7477-.012-1.2561-.0014-2.513-.0476-3.7678-.0248-.6723-.2861-.8739-1.0488-.91-.27-.0129-.44-.0556-.3536-.3961h4.3737c.063.3658.0471.3873-.2837.3908-.7681.0083-1.0471.2746-1.0482,1.0427q-.0069,4.5994,0,9.1991c.0012.7564.2.9443,1.0807,1.1167a1.2109,1.2109,0,0,1,.309.1639c-.1151.0546-.23.1559-.3453.1569-1.352.011-2.7042.0071-4.0474.0071-.14-.2572-.0394-.3032.1969-.3361.9163-.1272,1.1474-.2938,1.17-1.0661.0431-1.4731.0125-2.9484.0125-4.4506h-5.58v.62c0,1.1326-.0249,2.266.0079,3.3976.0293,1.0086.0088,1.39,1.2065,1.5166.08.0084.1465.1416.3017.3017-.9428,0-1.74-.0022-2.5381.0008-.5664.0022-1.1328.017-1.6991.012-.0867-.0008-.1728-.0786-.2591-.1207.0751-.0693.1388-.1674.2275-.2025a3.2477,3.2477,0,0,0,.723-.2555.8819.8819,0,0,0,.3592-.5837c.0443-2.95.0617-5.9007.0774-8.8513a8.1889,8.1889,0,0,0-.0721-1.0191c-.0479-.397-.4713-.6652-.9994-.6569C126.6949,36.15,126.6127,36.1493,126.4782,36.1493Zm2.8476,11.3255a11.9127,11.9127,0,0,1-.21-1.5549c-.0121-1.3922.0455-2.7849.047-4.1774.0012-1.1716-.0436-2.3432-.0561-3.5148a3.7551,3.7551,0,0,1,.3357-2.1121H127.95a8.0038,8.0038,0,0,1,.2239,1.3109c.0208,2.7764.0106,5.553.011,8.33a2.6145,2.6145,0,0,1-.3477,1.7188Zm7.2055,0a9.6532,9.6532,0,0,1-.2108-1.4116q-.0306-4.2474,0-8.4951a10.0763,10.0763,0,0,1,.2108-1.4444h-1.3379c.0677.587.1794,1.15.1886,1.7145.0258,1.5691.009,3.1389.009,4.7084q0,1.5126,0,3.0251a3.0375,3.0375,0,0,1-.361,1.9031Z"/><path class="cls-7" d="M86.6877,47.93l-.3115-.0211V43.9139c.32-.094.4146-.0295.4459.2833a4.8839,4.8839,0,0,0,.8609,2.535,2.6446,2.6446,0,0,0,3.7683.4227,1.9417,1.9417,0,0,0,.5983-1.3065,2.753,2.753,0,0,0-1.4933-2.7243c-.8758-.6052-1.7991-1.142-2.67-1.7542a3.2913,3.2913,0,0,1-.6442-5.0077,3.3385,3.3385,0,0,1,3.005-.7237,6.3712,6.3712,0,0,1,1.5461.6231c.4959.2337.63.1989.7485-.3247.0615-.272.208-.323.4134-.258V39.15c-.3909.1484-.4628-.0637-.4978-.3375a3.4149,3.4149,0,0,0-1.16-2.3541c-1.0634-.87-3.1074-.6868-3.5277.8193a2.3,2.3,0,0,0,.9529,2.5333c.8455.5858,1.7374,1.1043,2.5906,1.68a5.06,5.06,0,0,1,2.0261,2.0043,3.1131,3.1131,0,0,1-1.7275,4.3318,4.3474,4.3474,0,0,1-3.987-.37,1.6907,1.6907,0,0,0-.2212-.1059c-.3909-.179-.512-.1212-.6346.3018C86.7464,47.73,86.7233,47.8086,86.6877,47.93Zm1.0348-11.44.043-.0369c-.01.0006-.0228-.0025-.0277.0026a.112.112,0,0,0-.0161.0335l-.0973.0676a2.63,2.63,0,0,0-.3549,3.6412,11.5648,11.5648,0,0,0,1.9164,1.6111c.64.4767,1.3642.8434,1.9891,1.3373a2.8362,2.8362,0,0,1,.6946,4.1213.13.13,0,0,0-.0327.0176c-.0044.0043-.0011.0167-.0014.0255l.03-.047a1.9907,1.9907,0,0,0,.4029-.1608,2.8839,2.8839,0,0,0,.8282-3.3607,4.3271,4.3271,0,0,0-1.7485-1.8276c-.9488-.64-1.9318-1.23-2.869-1.8855a2.46,2.46,0,0,1-1.0869-2.44,6.5917,6.5917,0,0,1,.2747-.9889Zm-.42,10.3681.0464.0358-.0361-.0461-.5641-1.1911v1.2544C86.9522,46.8917,87.127,46.8751,87.302,46.8582Zm4.8244-10.0874.48.93V36.677Z"/><path class="cls-7" d="M139.9358,47.9005V43.899h.3336a20.7562,20.7562,0,0,0,.5311,2.0361,2.6338,2.6338,0,0,0,4.1309,1.2661,2.1921,2.1921,0,0,0,.662-1.2641,2.5968,2.5968,0,0,0-1.3684-2.73c-.9265-.6272-1.902-1.1859-2.8-1.8507a3.3413,3.3413,0,0,1-.9526-4.6158,2.8261,2.8261,0,0,1,2.3391-1.1536,3.4778,3.4778,0,0,1,2.3939.5808,1.8677,1.8677,0,0,0,.2517.1423c.3627.1791.5758.0889.6431-.32.0476-.29.1715-.3817.4181-.3142v3.4651c-.3807.1694-.4637-.0521-.4973-.3174a3.4243,3.4243,0,0,0-1.1523-2.3571c-1.0733-.8856-3.1286-.7-3.5479.8375a2.3111,2.3111,0,0,0,.9538,2.5018c.7411.5193,1.52.9838,2.278,1.48a5.6793,5.6793,0,0,1,2.3422,2.1992,3.1118,3.1118,0,0,1-1.7872,4.3626,4.4087,4.4087,0,0,1-3.9474-.4024,1.7111,1.7111,0,0,0-.2611-.1144c-.289-.1233-.5032-.1181-.5512.272C140.32,47.8354,140.2234,48.0267,139.9358,47.9005Zm1.35-11.4113-.0977.0677a2.63,2.63,0,0,0-.355,3.6412,11.5689,11.5689,0,0,0,1.9164,1.6111c.64.4767,1.3642.8434,1.9891,1.3373a2.836,2.836,0,0,1,.6946,4.1213.1273.1273,0,0,0-.0326.0176c-.0045.0043-.0012.0167-.0014.0255l.03-.047a1.9893,1.9893,0,0,0,.403-.1608,2.8842,2.8842,0,0,0,.8281-3.3607,4.3287,4.3287,0,0,0-1.7484-1.8276c-.949-.64-1.9318-1.23-2.8691-1.8854a2.46,2.46,0,0,1-1.0869-2.44A6.6032,6.6032,0,0,1,141.23,36.6l.0559-.11.0429-.0367c-.0094.0006-.0227-.0025-.0275.0025A.1108.1108,0,0,0,141.2853,36.4892Zm-.42,10.369.0464.0357-.0361-.046-.5641-1.1912v1.2544Zm4.83-10.0795.4648.9107V36.67Z"/><path class="cls-3" d="M70.8685,35.7647H71.14v3.8447l-.4016.0337c-.1433-.5329-.2561-1.0494-.4214-1.5484a3.0877,3.0877,0,0,0-2.8239-2.1841c-2.0025-.208-3.1187.5688-3.82,2.5114a10.8544,10.8544,0,0,0-.4243,4.921,6.1078,6.1078,0,0,0,.9975,2.8776,3.4447,3.4447,0,0,0,4.9258.8888,3.2452,3.2452,0,0,0,1.4008-2.5164,3.2039,3.2039,0,0,1,.0917-.68c.0426-.1122.2438-.1642.4807-.3089V47.82c-.2214.0528-.4092.08-.4186-.3211a.7931.7931,0,0,0-.2851-.5848c-.112-.07-.4172.0615-.57.1847a5.4248,5.4248,0,0,1-6.4357-.1054A5.5141,5.5141,0,0,1,61.56,43.57a8.7386,8.7386,0,0,1,.2854-4.4025,5.1446,5.1446,0,0,1,5.4152-3.666,4.85,4.85,0,0,1,2.4541.8616,5.2112,5.2112,0,0,0,.7374.3463ZM64.66,47.28l.0766.0226-.0546-.0447c-.1446-.1652-.2947-.3259-.4327-.4964a6.3132,6.3132,0,0,1-1.3279-3.4164c-.2447-2.3636-.1176-4.6579,1.3461-6.68l.0516-.05-.0819.02a10.1593,10.1593,0,0,0-1.1843,1.061,5.8285,5.8285,0,0,0-1.2291,3.2352,7.2632,7.2632,0,0,0,.8288,4.5933A3.73,3.73,0,0,0,64.66,47.28Zm6.1287-9.0546V36.9667l-.4841.1539Zm.0049,7.2053-.4569,1.0638.4569.1148Z"/><path class="cls-3" d="M115.7242,39.3388V35.7747h9.5141V39.271l-.404.0444c-.04-.2912-.07-.5588-.1154-.8238a3.3141,3.3141,0,0,0-.5875-1.71,2.1066,2.1066,0,0,0-1.504-.6141,12.062,12.062,0,0,0-1.3235-.01V36.67q0,4.6186,0,9.2372c0,1.2078.2346,1.4692,1.412,1.6125.1117.0137.2117.1244.3171.19a1.0359,1.0359,0,0,1-.3331.129q-2.237.0136-4.4741,0a1.047,1.047,0,0,1-.3543-.15l.0435-.1411c.2407-.0361.4805-.0784.7221-.1072a1.044,1.044,0,0,0,1.0206-.9757,3.9032,3.9032,0,0,0,.0533-.5762q.0049-4.7014.0019-9.4029c0-.0939-.01-.1878-.0172-.3189a5.2414,5.2414,0,0,0-2.4355.2515,1.8552,1.8552,0,0,0-.9252,1.5172c-.0756.3889-.0993.7883-.1822,1.1753-.026.1217-.1687.2185-.258.3267Zm5.2469-3.2221h-.92v.5085q0,4.536.0016,9.0719a2.8656,2.8656,0,0,1-.43,1.7709h1.81a2.0184,2.0184,0,0,1-.463-1.46q.003-4.7016.0008-9.4032Zm3.0454-.0171.8666,1.1357L124.96,36.1Zm-7.9283,1.2393.8714-1.2235h-.8714Z"/><path class="cls-3" d="M56.05,36.1546v.5287q0,4.6186,0,9.2372c0,1.1962.2395,1.4681,1.426,1.5889.1966.02.3776.0076.27.314H52.5571a2.0988,2.0988,0,0,1,.3117-.3035.6572.6572,0,0,1,.28-.0554c1.1739-.0828,1.2922-.6389,1.299-1.4639.0265-3.2169.0107-6.4341.0091-9.6513a1.94,1.94,0,0,0-.0459-.2495c-.6817.062-1.3657.0768-2.0309.1963-.8878.16-1.1485.8838-1.3,1.6528-.074.3753-.1148.7572-.17,1.1361-.04.2757-.04.2757-.4323.2785V35.77H59.98v3.5092l-.4029.0269c-.0392-.2934-.0671-.5619-.1122-.8274a3.141,3.141,0,0,0-.6254-1.736,2.2322,2.2322,0,0,0-1.5615-.5808C56.8956,36.1234,56.5063,36.1546,56.05,36.1546Zm-1.2524-.041v.5014q0,4.2045-.0018,8.409a4.0351,4.0351,0,0,1-.4162,2.45H56.18a2.0928,2.0928,0,0,1-.4648-1.4969q.0046-4.6808.0014-9.3617v-.502Zm4.9145-.0171h-.9585l.8745,1.1284Zm-8.87,1.2307.875-1.2252h-.875Z"/><path class="cls-4" d="M51.0065,47.83H46.9033l-.0862-.0807c.0836-.0794.1555-.2075.2526-.2308,1.1786-.2834,1.1967-.3054.7779-1.4841-.3016-.8488-.61-1.6954-.9339-2.5357a.3961.3961,0,0,0-.2967-.2007c-1.2842-.0136-2.5685-.0089-3.8941-.0089-.3123.861-.6943,1.7014-.9174,2.5821C41.52,47,41.79,47.3155,42.9392,47.52c.1045.0185.193.127.289.1938l-.0654.1126h-3.31c.0587-.1446.08-.3418.1588-.3685.7753-.2621,1.0176-.9444,1.2784-1.5993.5841-1.4669,1.1478-2.9418,1.7174-4.4144q1.0254-2.6508,2.047-5.3029a.8332.8332,0,0,1,.1012-.2246,2.8165,2.8165,0,0,1,.26-.2549c.0736.0816.1775.1509.216.2466.3581.8893.7061,1.7827,1.0548,2.6757,1.0314,2.641,2.0558,5.2848,3.0984,7.9214a1.51,1.51,0,0,0,.935.975C50.8149,47.5106,50.8724,47.6607,51.0065,47.83ZM45.4629,36.3391l-.1031.0052a5.79,5.79,0,0,0-.3918,1.08c-.03.18.1828.4011.2853.6038a.3226.3226,0,0,1,.0129.0393c.5928,1.6443,1.1738,3.2929,1.783,4.9311.3689.9923.7852,1.9669,1.1729,2.9523a1.7106,1.7106,0,0,1,.0527,1.5209h1.69a10.8731,10.8731,0,0,1-.5558-1.0613c-1.0067-2.5512-1.9965-5.109-2.994-7.6638C46.1015,37.9426,45.7806,37.1415,45.4629,36.3391Zm-.63,1.51L42.8939,42.91h3.832Zm-3.4912,8.8151-.5712.8131h.9906Z"/><path class="cls-6" d="M110.0576,36.1465V35.77h4.3055c.0538.3563.0358.38-.2916.3867-.7183.0145-.9255.1984-1.0027.9071a6.5365,6.5365,0,0,0-.0424.7018q-.0043,4.04-.0013,8.08c0,.1518-.0014.3045.0127.4553.0882.94.2,1.0543,1.1217,1.2187.1055.0188.1954.1244.2925.19l-.0628.1275q-.3268,0-.6535,0c-1.0913.0012-2.1827.0073-3.2739-.0019a1.5668,1.5668,0,0,1-.4178-.1246,2.9316,2.9316,0,0,1,.3924-.2462,3.0978,3.0978,0,0,0,.5687-.202.8759.8759,0,0,0,.3431-.4727,5.26,5.26,0,0,0,.0836-1.058q.009-3.7293,0-7.4587c-.0013-.4781-.0338-.9567-.0677-1.434a.8333.8333,0,0,0-.8067-.6908C110.4077,36.1372,110.2563,36.1465,110.0576,36.1465Zm2.8412,11.3282a14.9374,14.9374,0,0,1-.2022-1.7084q-.033-3.9941,0-7.9884a13.6842,13.6842,0,0,1,.2084-1.6622h-1.371a7.611,7.611,0,0,1,.2223,1.2739q.03,4.263.0014,8.5264a12.5368,12.5368,0,0,1-.1972,1.5587Z"/><path class="cls-8" d="M35.9293,54.6008a27.62,27.62,0,0,1-13.042.69A27.1671,27.1671,0,0,1,7.6985,46.9792a27.0594,27.0594,0,0,1-7.4829-17.4,26.9536,26.9536,0,0,1,5.391-18.1436A27.7052,27.7052,0,0,1,35.8892,1.3058c-8.3983-1.515-16.085.1809-22.7377,5.6493A26.613,26.613,0,0,0,3.17,28.2048,26.6287,26.6287,0,0,0,13.35,49.1122C19.9782,54.4578,27.5935,56.0994,35.9293,54.6008Z"/><path class="cls-8" d="M36.0712,54.56l-.0581.01-.0037-.0194.0578-.012Z"/><path class="cls-8" d="M36.0164,1.3337l.0534.0224-.0588.0113Z"/><path class="cls-9" d="M24.7483,27.9387c.0254-.2432.0359-.489.0791-.729.1282-.7116.2772-1.4194.4033-2.1313.1782-1.0054.3432-2.0131.5139-3.02q.29-1.7086.58-3.4172.27-1.5878.5394-3.1754.3106-1.8292.621-3.6585.2295-1.3548.4583-2.71a.2511.2511,0,0,1,.01-.031l.0255.03c-.0008.0351-.0023.07-.0023.1053q0,7.6046,0,15.2091a.2568.2568,0,0,1,0,.0351c-.0151.1129.03.1518.1468.1536a2.0415,2.0415,0,0,1,.503.049,10.5639,10.5639,0,0,0,2.0312.1925.2577.2577,0,0,0,.2676.1769c1.027.0561,2.0538.1181,3.08.18.7465.045,1.4928.0931,2.2393.1394q1.4259.0883,2.8518.1762l2.2746.14q1.4259.0879,2.8519.1759,1.4083.0873,2.8167.1752,1.1371.0707,2.2745.1408l2.8519.1759q1.4259.0879,2.8519.176,1.4083.0873,2.8166.1752,1.1373.0707,2.2745.1407,1.426.0881,2.8519.176,1.4.0868,2.7992.1745,1.4348.089,2.8694.1769,1.1285.07,2.257.14,1.4347.0885,2.87.1765,1.1109.0688,2.2217.1392c.5832.0362,1.1666.0707,1.75.1075a.4814.4814,0,0,1,.0985.0275c-.1231.0016-.246.0046-.369.0046q-23.6942,0-47.3883,0c-.0879,0-.1757.0012-.2635.0018-.0114-.0631-.0251-.1259-.0338-.1894a1.8232,1.8232,0,0,0-3.6271.1889Z"/><path class="cls-10" d="M29.8041,27.9388c.0878-.0006.1756-.0018.2635-.0018q23.6942,0,47.3883,0c.123,0,.2459-.003.369-.0046h.508l.0006.0234c-.2071.0156-.4142.034-.6215.0462-.8751.0513-1.75.0992-2.6254.1513q-1.4348.0855-2.8691.1764-1.1106.0689-2.2213.1389-1.4344.089-2.869.1769l-2.2742.14q-1.4257.0881-2.8514.1761-1.4081.0873-2.8162.1752-1.1371.07-2.2743.1406-1.4344.0884-2.8689.1767-1.1108.0687-2.2213.1388-1.4346.089-2.8691.1769-1.1283.07-2.2566.14-1.4344.0885-2.8689.1767-1.12.0693-2.2391.14-1.4256.0885-2.8514.1762t-2.8515.176q-1.4169.0876-2.8337.1755t-2.8339.1761c-.3148.02-.6318.0254-.9432.07-.2408.0342-.4722.13-.7118.1788a3.22,3.22,0,0,1-3.787-2.7684c-.0166-.1563-.018-.3142-.0264-.4712l1.3949,0a3.5853,3.5853,0,0,0,.0463.3986,1.82,1.82,0,0,0,2.2227,1.3867A1.8537,1.8537,0,0,0,29.8041,27.9388Z"/><path class="cls-8" d="M30.6561,24.8414a10.5639,10.5639,0,0,1-2.0312-.1925,2.0415,2.0415,0,0,0-.503-.049c-.1164-.0018-.1619-.0407-.1468-.1536a.2568.2568,0,0,0,0-.0351q0-7.6046,0-15.2091c0-.0351.0015-.07.0023-.1053.0682.3654.1413.73.2037,1.0966.17,1,.3347,2.0021.5043,3.0028.1833,1.0811.3706,2.1616.555,3.2425q.4209,2.4664.84,4.9331.2805,1.6473.56,3.2948C30.65,24.7241,30.6511,24.7831,30.6561,24.8414Z"/><path class="cls-11" d="M107.1736,36.1436a10.0977,10.0977,0,0,0-.1978,1.3724q-.0266,4.2437-.0006,8.4874a11.1326,11.1326,0,0,0,.1888,1.425h-1.2417c.2662-3.4091.0608-6.82.1156-10.2251a1.1881,1.1881,0,0,0-.17-.4937.361.361,0,0,1,.3192-.5639C106.5311,36.1367,106.8752,36.1436,107.1736,36.1436Z"/><path class="cls-12" d="M96.701,36.0856c.4078,0,.8168-.0167,1.2225.0131.0886.0065.2.1654.242.2764q1.7123,4.486,3.41,8.9773a.3864.3864,0,0,0,.0462.1148c.5671.664.0354,1.2239-.1673,1.901-.5894-1.51-1.15-2.9439-1.7088-4.3788-.7805-2.006-1.5527-4.0154-2.3494-6.015-.0662-.1662-.2991-.2619-.4419-.4031-.1143-.113-.2092-.2455-.3127-.3693Z"/><path class="cls-13" d="M97.1562,47.4954h-.6678l.3167-.51Z"/><path class="cls-12" d="M26.4144,36.1105h1.6283a2.7551,2.7551,0,0,0,.2243,1.9386c.7317,2.2551,1.4784,4.5053,2.22,6.7573a.3228.3228,0,0,0,.0137.0391,2.3184,2.3184,0,0,1,.3356.7251,2.376,2.376,0,0,1-.2036.7924c-.0774.2616-.1609.5214-.2752.89-.0849-.2095-.1385-.3242-.1786-.4434-1.0564-3.1354-2.1056-6.2733-3.1732-9.4049A13.6383,13.6383,0,0,0,26.4144,36.1105Z"/><path class="cls-12" d="M32.4258,36.1119h1.6373a1.9185,1.9185,0,0,0,.0645,1.6144q1.1484,3.5857,2.3242,7.1627a3.82,3.82,0,0,0,.4065.6723l-.5365,1.7062c-.0877-.2327-.1405-.3609-.1848-.492q-1.2334-3.6456-2.47-7.29a3.7676,3.7676,0,0,0-.3061-.5732c-.0245-.0443-.0826-.0844-.0821-.126A6.5078,6.5078,0,0,0,32.4258,36.1119Z"/><path class="cls-13" d="M40.1828,36.1206l-.5937.7756-.3655-.7756Z"/><path class="cls-14" d="M75.8425,47.4748H74.3593a2.545,2.545,0,0,0,.3466-1.6392c-.0033-2.8041.0084-5.6084-.0124-8.4124a7.8968,7.8968,0,0,0-.225-1.3076h1.4987a3.5074,3.5074,0,0,0-.3412,2.0324c.0135,1.1993.0577,2.3985.0566,3.5977-.0012,1.3787-.06,2.7576-.0475,4.136A12.6875,12.6875,0,0,0,75.8425,47.4748Z"/><path class="cls-14" d="M81.71,36.1158h1.3455a9.4012,9.4012,0,0,0-.2148,1.4065q-.0311,4.2888,0,8.578a9.1778,9.1778,0,0,0,.2106,1.3743H81.5617a3.4112,3.4112,0,0,0,.3485-2.0233c.0022-.9669.0006-1.9338.0006-2.9008,0-1.5971.0162-3.1945-.0091-4.7913A16,16,0,0,0,81.71,36.1158Z"/><path class="cls-14" d="M129.3258,47.4748h-1.4887a2.6145,2.6145,0,0,0,.3477-1.7188c0-2.7765.01-5.5531-.011-8.33a8.0038,8.0038,0,0,0-.2239-1.3109h1.4921a3.7551,3.7551,0,0,0-.3357,2.1121c.0125,1.1716.0573,2.3432.0561,3.5148-.0015,1.3925-.0591,2.7852-.047,4.1774A11.9127,11.9127,0,0,0,129.3258,47.4748Z"/><path class="cls-14" d="M136.5313,47.4746H135.03a3.0375,3.0375,0,0,0,.361-1.9031q.0016-1.5126,0-3.0251c0-1.5695.0168-3.1393-.009-4.7084-.0092-.5646-.1209-1.1275-.1886-1.7145h1.3379a10.0763,10.0763,0,0,0-.2108,1.4444q-.0311,4.2474,0,8.4951A9.6532,9.6532,0,0,0,136.5313,47.4746Z"/><path class="cls-15" d="M87.6673,36.6006a6.5174,6.5174,0,0,0-.2752.9885,2.46,2.46,0,0,0,1.0869,2.44c.9372.6558,1.92,1.2458,2.869,1.8855a4.3271,4.3271,0,0,1,1.7485,1.8276,2.8839,2.8839,0,0,1-.8282,3.3607,1.9907,1.9907,0,0,1-.4029.1608l.0042.0039a2.8362,2.8362,0,0,0-.6946-4.1213c-.6249-.4939-1.349-.8606-1.9891-1.3373A11.5648,11.5648,0,0,1,87.27,40.1981a2.6294,2.6294,0,0,1,.355-3.6411Z"/><path class="cls-16" d="M87.3018,46.8584l-.5536.0528V45.6568l.5641,1.1911Z"/><path class="cls-16" d="M92.1264,36.7708l.48-.0938v1.0242Z"/><path class="cls-15" d="M91.8654,47.2639l-.03.047c0-.0088-.0031-.0212.0013-.0255a.13.13,0,0,1,.0327-.0176Z"/><path class="cls-15" d="M87.7217,36.4892a.1126.1126,0,0,1,.0161-.0334c.0049-.0051.0182-.002.0277-.0026l-.043.0369Z"/><path class="cls-15" d="M87.7225,36.49q-.0279.0551-.0555.11l-.0425-.0434.0972-.0678Z"/><path class="cls-16" d="M87.3123,46.8479l.0361.0461-.0465-.0357Z"/><path class="cls-15" d="M141.23,36.6007a6.5286,6.5286,0,0,0-.2751.9885,2.46,2.46,0,0,0,1.0869,2.44c.9373.6557,1.92,1.2458,2.8691,1.8854a4.3287,4.3287,0,0,1,1.7484,1.8276,2.8842,2.8842,0,0,1-.8281,3.3607,1.9893,1.9893,0,0,1-.403.1608l.0042.0039a2.836,2.836,0,0,0-.6946-4.1213c-.6249-.4939-1.349-.8606-1.9891-1.3373a11.5689,11.5689,0,0,1-1.9164-1.6111,2.63,2.63,0,0,1,.355-3.6411Z"/><path class="cls-16" d="M140.8649,46.8584l-.5536.0527V45.6567l.5641,1.1912Z"/><path class="cls-16" d="M145.6948,36.7787l.4648-.1085v1.0192Z"/><path class="cls-15" d="M145.4285,47.2639l-.03.047c0-.0088-.0031-.0212.0014-.0255a.1273.1273,0,0,1,.0326-.0176Z"/><path class="cls-16" d="M140.8754,46.8479l.0361.046-.0465-.0356Z"/><path class="cls-15" d="M141.2857,36.49c-.0186.0367-.0373.0734-.0556.11l-.0425-.0435.0977-.0678Z"/><path class="cls-15" d="M141.2853,36.4892a.1108.1108,0,0,1,.0158-.0334c.0048-.005.0181-.0019.0275-.0025l-.0429.0368Z"/><path class="cls-12" d="M64.2675,36.6647c-1.4639,2.022-1.591,4.3163-1.3463,6.68a6.3132,6.3132,0,0,0,1.3279,3.4164c.138.17.2881.3312.4327.4964l-.0223.0224a3.732,3.732,0,0,1-2.0071-1.7554,7.2632,7.2632,0,0,1-.8288-4.5933,5.8285,5.8285,0,0,1,1.2291-3.2352,10.1593,10.1593,0,0,1,1.1843-1.061Z"/><path class="cls-17" d="M70.7885,38.2249l-.4841-1.1043.4841-.1539Z"/><path class="cls-16" d="M70.7934,45.43v1.1786l-.4569-.1148Z"/><path class="cls-12" d="M64.6818,47.2574l.0546.0447L64.66,47.28Z"/><path class="cls-12" d="M64.237,36.6349l.0819-.02-.0515.05Z"/><path class="cls-11" d="M120.9711,36.1167v.4885q0,4.7016-.0008,9.4032a2.0184,2.0184,0,0,0,.463,1.46h-1.81a2.8656,2.8656,0,0,0,.43-1.7709q-.0051-4.536-.0016-9.0719v-.5085Z"/><path class="cls-17" d="M124.0165,36.1h.9433l-.0767,1.1357Z"/><path class="cls-17" d="M116.0882,37.3389V36.1154h.8714Z"/><path class="cls-11" d="M54.7974,36.1136h.92v.502q0,4.6809-.0014,9.3617a2.0928,2.0928,0,0,0,.4648,1.4969h-1.801a4.0351,4.0351,0,0,0,.4162-2.45q.007-4.2045.0018-8.409Z"/><path class="cls-17" d="M59.7119,36.0965l-.084,1.1284-.8745-1.1284Z"/><path class="cls-17" d="M50.8415,37.3272V36.102h.875Z"/><path class="cls-12" d="M45.4629,36.3391c.3177.8024.6386,1.6035.9525,2.4074.9975,2.5548,1.9873,5.1126,2.994,7.6638a10.8731,10.8731,0,0,0,.5558,1.0613h-1.69a1.7106,1.7106,0,0,0-.0527-1.5209c-.3877-.9854-.804-1.96-1.1729-2.9523-.6092-1.6382-1.19-3.2868-1.783-4.9311a.3226.3226,0,0,0-.0129-.0393c-.1025-.2027-.3154-.4234-.2853-.6038a5.79,5.79,0,0,1,.3918-1.08Z"/><path class="cls-13" d="M41.3418,46.6638l.4194.8131h-.9906Z"/><path class="cls-14" d="M112.8988,47.4747h-1.338a12.5368,12.5368,0,0,0,.1972-1.5587q.03-4.263-.0014-8.5264a7.611,7.611,0,0,0-.2223-1.2739h1.371a13.6842,13.6842,0,0,0-.2084,1.6622q-.0336,3.9941,0,7.9884A14.9374,14.9374,0,0,0,112.8988,47.4747Z"/><path class="cls-18" d="M29.8041,27.9388a1.8537,1.8537,0,0,1-1.3919,1.7848A1.82,1.82,0,0,1,26.19,28.3369a3.5853,3.5853,0,0,1-.0463-.3986,1.8232,1.8232,0,0,1,3.6271-.1889C29.779,27.8129,29.7927,27.8757,29.8041,27.9388Zm-1.8415,1.6876a1.6491,1.6491,0,1,0,.0065-3.2976,1.649,1.649,0,1,0-.0065,3.2976Z"/></g></g></svg>