<svg xmlns="http://www.w3.org/2000/svg" width="57.5903" height="40" viewBox="0 0 57.5903 40"><defs><style>.cls-1{fill:#9b948f;}.cls-2{fill:#b8b2b1;}.cls-3{fill:#9a9490;}.cls-4{fill:#c99618;}.cls-5{fill:#98721d;}.cls-6{fill:#c89618;}.cls-7{fill:#99928e;}</style></defs><g id="Layer_2" data-name="Layer 2"><g id="Layer_1-2" data-name="Layer 1"><g id="Layer_2-2" data-name="Layer 2"><g id="Shape_1_Image" data-name="Shape 1 Image"><path class="cls-1" d="M0,19.3064a19.8935,19.8935,0,0,1,4.3618-11.77,20.1936,20.1936,0,0,1,4.29-3.9756,19.5074,19.5074,0,0,1,5.1913-2.56A17.7465,17.7465,0,0,1,17.2041.2c.6722-.0786,1.3086-.1144,1.9664-.2h1.6661a1.8961,1.8961,0,0,0,.286,0,.8734.8734,0,0,0,.1144,0h.0715A.3836.3836,0,0,0,21.38.05c.7865.0929,1.5016.1573,2.2524.286a18.7257,18.7257,0,0,1,4.5334,1.43h.0715c-.4076-.1216-.8152-.2717-1.23-.3718-.715-.1788-1.48-.35-2.2238-.4934-.4362-.0787-.8938-.1-1.3371-.1573A15.0521,15.0521,0,0,0,21.4015.665a8.6189,8.6189,0,0,0-1.2871.0644c-.5863.0572-1.18.1215-1.759.2288-.7151.143-1.43.3-2.1452.5077a19.92,19.92,0,0,0-1.9092.6793c-.5434.2216-1.0725.479-1.5945.715A16.4845,16.4845,0,0,0,9.9249,4.655c-.4719.3718-.9367.7651-1.38,1.1727A18.218,18.218,0,0,0,5.892,8.8666a19.1712,19.1712,0,0,0-3.0675,7.0219c-.1431.6793-.25,1.3657-.329,2.0593a18.803,18.803,0,0,0-.0858,2.86,18.5946,18.5946,0,0,0,.3075,2.7387,19.7259,19.7259,0,0,0,.7151,2.7172,19.0957,19.0957,0,0,0,1.5731,3.4823,19.4437,19.4437,0,0,0,1.7375,2.4955,17.1632,17.1632,0,0,0,1.63,1.7519,19.1775,19.1775,0,0,0,7.651,4.4762,16.1749,16.1749,0,0,0,2.46.5792c.5434.0786,1.094.143,1.6446.2a16.383,16.383,0,0,0,2.5813.0429,17.7713,17.7713,0,0,0,3.5753-.5291c.5721-.15,1.1441-.3361,1.7161-.5006a.0929.0929,0,0,1,.0858,0c-.2288.1-.4647.2145-.715.3-.6007.2146-1.1941.4291-1.8091.6078s-1.2871.329-1.9378.4648a11.1944,11.1944,0,0,1-1.1941.1859c-.5149.0572-1.0368.0858-1.5588.1287,0,0-.0429.0358-.0644.05h-1.63a.5371.5371,0,0,0-.0858-.05,19.304,19.304,0,0,1-3.0747-.3718A19.8814,19.8814,0,0,1,.05,21.3228.0965.0965,0,0,0,0,21.2442v-.05a.18.18,0,0,0,0-.0786V19.3064ZM25.6918,39.0418A19.1771,19.1771,0,0,1,9.5459,35.1162,19.0276,19.0276,0,0,1,2.2667,20.1645,18.9292,18.9292,0,0,1,9.4029,5.0054,19.2585,19.2585,0,0,1,25.6632.9367,19.7927,19.7927,0,0,0,4.0114,8.18,19.2208,19.2208,0,0,0,.1573,21.1512,19.3062,19.3062,0,0,0,5.5059,33.6074,19.4208,19.4208,0,0,0,16.3675,39.55,19.7924,19.7924,0,0,0,25.6918,39.0418Zm.1,0ZM25.7419.951Z"/><path class="cls-2" d="M20.8366,0h0Z"/><path class="cls-3" d="M22.0379,17.7833l1.0011.0572,1.473.1.951.05,1.4873.1.951.05,1.43.1.9439.05,1.4945.1.93.05,1.5088.1.9009.05,1.5374.1.9081.05,1.5231.1.8938.05,1.5445.1.901.0572,1.5373.0929.901.0572,1.5374.093.9009.0572,1.53.093.9153.0572,1.5231.1.8723.05,1.58.1.951.05,1.48.1.93.05A4.1916,4.1916,0,0,1,57.59,20l-.8009.0215L55.4737,20.1l-.6578.0429-1.0511.0787H53.2L52.1273,20.3h-.6221l-1.0082.0715h-.5578l-1.0511.0787h-.5649l-1.0726.0786h-.6149l-1.3157.2074-.7151.0429-.9867.1H43.06l-1.08.0787H41.38l-1.3372.1215-.715.05-.9582.0786H37.862l-.7151.0572h-.4218l-1.044.05-.98.0715h-.5149L33.1,21.4659h-.4505l-1.0655.05-1.2155.0787-.8224.05-1.2155.0715-1.2156.0787-1.2156.0715-.7937.05-.9654.0787h-.6149l-1.0225.1716h-.6078a5.1524,5.1524,0,0,0-.9367.0572,2.284,2.284,0,0,0-.4219.1073,2.4025,2.4025,0,0,1-2.8921-1.7834c-.0066-.0275-.0126-.0552-.0182-.0829a2.7118,2.7118,0,0,1,.0715-1.2657,6.285,6.285,0,0,0,.1788-.7722c.0715-.4147.143-.8295.2074-1.2442s.15-.8438.2216-1.2656.1573-.9368.2431-1.43.1359-.8367.2074-1.2585.1645-.9368.2431-1.43l.236-1.43c.0787-.4648.1645-.93.2431-1.3944s.1359-.8438.2074-1.2656.1644-.9368.2431-1.43a2.87,2.87,0,0,1,.0787-.4863h0Q21.03,11.82,22.0379,17.7833Zm-.1144,0v-.1215c-.1359-.7866-.2646-1.5731-.4-2.36l-.6007-3.5252c-.1287-.7723-.2646-1.5445-.3933-2.3168L20.1645,7.315c-.0429-.2574-.093-.522-.143-.7794h0c-.1073.6435-.2146,1.2871-.329,1.9378-.143.8723-.2931,1.7447-.4433,2.6171l-.3861,2.2667c-.1359.8151-.2717,1.63-.4148,2.4454s-.2359,1.43-.3646,2.1452c-.093.5077-.1931,1.0154-.2861,1.5231a4.2907,4.2907,0,0,0-.0572.5219v.3361A2.31,2.31,0,0,0,20.3223,22.33q.0644-.0081.1282-.02c.1716-.0357.3361-.1072.5077-.1287s.45-.0357.6793-.05l2.0236-.1288,2.0236-.1215,2.045-.1287,2.0379-.1216,1.6017-.1,2.0522-.1287,1.616-.1144,2.0522-.1287,1.5231-.1,2.0522-.1216,1.63-.1,2.0379-.1,2.0379-.1216,1.63-.1,2.0522-.1573,1.5874-.1,2.0522-.1287,1.8735-.1072h.0143l-1.2371-.1431-1.5945-.1L50.7043,19.65l-1.616-.1-2.0522-.1287-1.9878-.1144L43.01,19.1777l-1.63-.1-2.0522-.1287L37.2828,18.82l-2.0379-.1216-1.6375-.1073-2.0164-.1287-2.0379-.1287-1.6232-.1-2.045-.1215-1.5731-.093c-.7151-.0429-1.4659-.0929-2.2024-.1287a.1788.1788,0,0,1-.1859-.1287Z"/><path class="cls-4" d="M25.6918,39.0418a19.7917,19.7917,0,0,1-9.2957.4934,19.4207,19.4207,0,0,1-10.89-5.9278A19.3062,19.3062,0,0,1,.1573,21.1512,19.2208,19.2208,0,0,1,4.0114,8.18,19.7927,19.7927,0,0,1,25.6632.9367a19.05,19.05,0,0,0-16.26,4.0687A19.0191,19.0191,0,0,0,2.2667,20.1645,19.0276,19.0276,0,0,0,9.5459,35.1162,19.1887,19.1887,0,0,0,25.6918,39.0418Z"/><path class="cls-4" d="M25.7919,39.0132h0Z"/><path class="cls-5" d="M17.6975,19.9785a4.2907,4.2907,0,0,1,.0572-.5219c.093-.5077.1931-1.0154.2861-1.5231.1287-.715.2431-1.43.3646-2.1452s.2789-1.63.4148-2.4454l.3861-2.2667c.15-.8724.3-1.7448.4433-2.6171.1144-.6507.2217-1.2943.329-1.9378h0V17.483c0,.0787,0,.1073.1.1073a1.19,1.19,0,0,1,.3575,0,7.6936,7.6936,0,0,0,1.43.1358.1785.1785,0,0,0,.1859.1287c.7151.0358,1.473.0859,2.2024.1288l1.6017.1,2.045.1215,1.6232.1,2.0379.1287,2.045.1573,1.6232.1,2.0379.1215,2.0594.1359,2.0093.1215,1.63.1,2.0808.1359,2.0021.1216,2.0522.1287,1.616.1,2.0451.1287,1.58.0929,1.2514.0715H21.3371v-.1358a1.3014,1.3014,0,0,0-2.5956.1358Z"/><path class="cls-6" d="M21.3085,19.9785H55.5667l-1.8735.1073-2.0522.1287-1.5874.143-2.0522.1287-1.63.1-2.0379.15-2.0093.1287-1.63.1-2.0808.093-1.5874.1-1.9879.1287-1.6088.1-2.0522.1287-1.6017.1-2.0379.1216-2.0451.1287-2.0236.1215-2.0236.1288a3.0787,3.0787,0,0,0-.6793.05c-.2216.05-.3361.093-.5077.1287a2.31,2.31,0,0,1-2.69-1.8525q-.0117-.0637-.02-.1282v-.3361h.9939a.7867.7867,0,0,0,.0358.2861,1.2941,1.2941,0,0,0,1.5334.9993q.0272-.0057.054-.0126A1.3155,1.3155,0,0,0,21.3085,19.9785Z"/><path class="cls-4" d="M21.9235,17.7619a7.6937,7.6937,0,0,1-1.43-.1359,1.1967,1.1967,0,0,0-.3575,0c-.0787,0-.1144,0-.1-.1072V6.507c.05.2574.1.522.143.7794l.3646,2.1451c.1288.7723.2646,1.5445.3933,2.3168l.6007,3.5252c.1358.7866.2645,1.5731.4,2.36A.2012.2012,0,0,0,21.9235,17.7619Z"/><path class="cls-7" d="M21.3085,19.9785a1.3155,1.3155,0,0,1-.9939,1.2728,1.2942,1.2942,0,0,1-1.5748-.9327q-.0069-.0268-.0126-.054a.7879.7879,0,0,0-.0357-.286,1.3014,1.3014,0,0,1,2.5956-.1359Zm-1.287,1.2085a1.18,1.18,0,0,0,.0015-2.36h-.0015a1.2085,1.2085,0,0,0-1.2228,1.194v0a1.1942,1.1942,0,0,0,1.2221,1.1655Z"/></g></g></g></g></svg>