<svg xmlns="http://www.w3.org/2000/svg" width="57.5903" height="40" viewBox="0 0 57.5903 40"><defs><style>.cls-1{fill:#9b948f;}.cls-2{fill:#b8b2b1;}.cls-3{fill:#9a9490;}.cls-4{fill:#958f8e;}.cls-5{fill:#9b9491;}.cls-6{fill:#9c9592;}.cls-7{fill:#99938f;}.cls-8{fill:#9a9390;}.cls-9{fill:#c99618;}.cls-10{fill:#98721d;}.cls-11{fill:#c89618;}.cls-12{fill:#c89619;}.cls-13{fill:#c8961d;}.cls-14{fill:#c29532;}.cls-15{fill:#c8961a;}.cls-16{fill:#c8961c;}.cls-17{fill:#c69623;}.cls-18{fill:#c49629;}.cls-19{fill:#99928e;}</style></defs><g id="Layer_2" data-name="Layer 2"><g id="Layer_1-2" data-name="Layer 1"><g id="Layer_2-2" data-name="Layer 2"><g id="Shape_1_Image" data-name="Shape 1 Image"><path class="cls-1" d="M0,19.3064a19.8935,19.8935,0,0,1,4.3618-11.77,20.1936,20.1936,0,0,1,4.29-3.9756,19.5074,19.5074,0,0,1,5.1913-2.56A17.7465,17.7465,0,0,1,17.2041.2c.6722-.0786,1.3086-.1144,1.9664-.2h1.6661a1.8961,1.8961,0,0,0,.286,0,.8734.8734,0,0,0,.1144,0h.0715A.3836.3836,0,0,0,21.38.05c.7865.0929,1.5016.1573,2.2524.286a18.7257,18.7257,0,0,1,4.5334,1.43h.0715c-.4076-.1216-.8152-.2717-1.23-.3718-.715-.1788-1.48-.35-2.2238-.4934-.4362-.0787-.8938-.1-1.3371-.1573A15.0521,15.0521,0,0,0,21.4015.665a8.6189,8.6189,0,0,0-1.2871.0644c-.5863.0572-1.18.1215-1.759.2288-.7151.143-1.43.3-2.1452.5077a19.92,19.92,0,0,0-1.9092.6793c-.5434.2216-1.0725.479-1.5945.715A16.4845,16.4845,0,0,0,9.9249,4.655c-.4719.3718-.9367.7651-1.38,1.1727A18.218,18.218,0,0,0,5.892,8.8666a19.1712,19.1712,0,0,0-3.0675,7.0219c-.1431.6793-.25,1.3657-.329,2.0593a18.803,18.803,0,0,0-.0858,2.86,18.5946,18.5946,0,0,0,.3075,2.7387,19.7259,19.7259,0,0,0,.7151,2.7172,19.0957,19.0957,0,0,0,1.5731,3.4823,19.4437,19.4437,0,0,0,1.7375,2.4955,17.1632,17.1632,0,0,0,1.63,1.7519,19.1775,19.1775,0,0,0,7.651,4.4762,16.1749,16.1749,0,0,0,2.46.5792c.5434.0786,1.094.143,1.6446.2a16.383,16.383,0,0,0,2.5813.0429,17.7713,17.7713,0,0,0,3.5753-.5291c.5721-.15,1.1441-.3361,1.7161-.5006a.0929.0929,0,0,1,.0858,0c-.2288.1-.4647.2145-.715.3-.6007.2146-1.1941.4291-1.8091.6078s-1.2871.329-1.9378.4648a11.1944,11.1944,0,0,1-1.1941.1859c-.5149.0572-1.0368.0858-1.5588.1287,0,0-.0429.0358-.0644.05h-1.63a.5371.5371,0,0,0-.0858-.05,19.304,19.304,0,0,1-3.0747-.3718A19.8814,19.8814,0,0,1,.05,21.3228.0965.0965,0,0,0,0,21.2442v-.05a.18.18,0,0,0,0-.0786V19.3064ZM25.6918,39.0418A19.1771,19.1771,0,0,1,9.5459,35.1162,19.0276,19.0276,0,0,1,2.2667,20.1645,18.9292,18.9292,0,0,1,9.4029,5.0054,19.2585,19.2585,0,0,1,25.6632.9367,19.7927,19.7927,0,0,0,4.0114,8.18,19.2208,19.2208,0,0,0,.1573,21.1512,19.3062,19.3062,0,0,0,5.5059,33.6074,19.4208,19.4208,0,0,0,16.3675,39.55,19.7924,19.7924,0,0,0,25.6918,39.0418Zm.1,0ZM25.7419.951Z"/><path class="cls-2" d="M20.8366,0h0Z"/><path class="cls-3" d="M22.0379,17.7833l1.0011.0572,1.473.1.951.05,1.4873.1.951.05,1.43.1.9439.05,1.4945.1.93.05,1.5088.1.9009.05,1.5374.1.9081.05,1.5231.1.8938.05,1.5445.1.901.0572,1.5373.0929.901.0572,1.5374.093.9009.0572,1.53.093.9153.0572,1.5231.1.8723.05,1.58.1.951.05,1.48.1.93.05A4.1916,4.1916,0,0,1,57.59,20l-.8009.0215L55.4737,20.1l-.6578.0429-1.0511.0787H53.2L52.1273,20.3h-.6221l-1.0082.0715h-.5578l-1.0511.0787h-.5649l-1.0726.0786h-.6149l-1.3157.2074-.7151.0429-.9867.1H43.06l-1.08.0787H41.38l-1.3372.1215-.715.05-.9582.0786H37.862l-.7151.0572h-.4218l-1.044.05-.98.0715h-.5149L33.1,21.4659h-.4505l-1.0655.05-1.2155.0787-.8224.05-1.2155.0715-1.2156.0787-1.2156.0715-.7937.05-.9654.0787h-.6149l-1.0225.1716h-.6078a5.1524,5.1524,0,0,0-.9367.0572,2.284,2.284,0,0,0-.4219.1073,2.4025,2.4025,0,0,1-2.8921-1.7834c-.0066-.0275-.0126-.0552-.0182-.0829a2.7118,2.7118,0,0,1,.0715-1.2657,6.285,6.285,0,0,0,.1788-.7722c.0715-.4147.143-.8295.2074-1.2442s.15-.8438.2216-1.2656.1573-.9368.2431-1.43.1359-.8367.2074-1.2585.1645-.9368.2431-1.43l.236-1.43c.0787-.4648.1645-.93.2431-1.3944s.1359-.8438.2074-1.2656.1644-.9368.2431-1.43a2.87,2.87,0,0,1,.0787-.4863h0Q21.03,11.82,22.0379,17.7833Zm-.1144,0v-.1215c-.1359-.7866-.2646-1.5731-.4-2.36l-.6007-3.5252c-.1287-.7723-.2646-1.5445-.3933-2.3168L20.1645,7.315c-.0429-.2574-.093-.522-.143-.7794h0c-.1073.6435-.2146,1.2871-.329,1.9378-.143.8723-.2931,1.7447-.4433,2.6171l-.3861,2.2667c-.1359.8151-.2717,1.63-.4148,2.4454s-.2359,1.43-.3646,2.1452c-.093.5077-.1931,1.0154-.2861,1.5231a4.2907,4.2907,0,0,0-.0572.5219v.3361A2.31,2.31,0,0,0,20.3223,22.33q.0644-.0081.1282-.02c.1716-.0357.3361-.1072.5077-.1287s.45-.0357.6793-.05l2.0236-.1288,2.0236-.1215,2.045-.1287,2.0379-.1216,1.6017-.1,2.0522-.1287,1.616-.1144,2.0522-.1287,1.5231-.1,2.0522-.1216,1.63-.1,2.0379-.1,2.0379-.1216,1.63-.1,2.0522-.1573,1.5874-.1,2.0522-.1287,1.8735-.1072h.0143l-1.2371-.1431-1.5945-.1L50.7043,19.65l-1.616-.1-2.0522-.1287-1.9878-.1144L43.01,19.1777l-1.63-.1-2.0522-.1287L37.2828,18.82l-2.0379-.1216-1.6375-.1073-2.0164-.1287-2.0379-.1287-1.6232-.1-2.045-.1215-1.5731-.093c-.7151-.0429-1.4659-.0929-2.2024-.1287a.1788.1788,0,0,1-.1859-.1287Z"/><path class="cls-4" d="M55.4094,32.37v.4147H17.7047V32.37Zm-.1.1H17.7976v.2074H55.3093Z"/><path class="cls-5" d="M42.9031,26.128c0,.0787,0,.1073-.1.1073-.2217,0-.2789.05-.3075.2717a1.7593,1.7593,0,0,0,0,.2v2.56c0,.2645,0,.3575.3576.4076,0,0,.05.0429.0786.0643H41.6875l-.1144-.0429.1073-.0715h.1287a.4142.4142,0,0,0,.1573-.1788,1.07,1.07,0,0,0,0-.3074V26.6071a.0786.0786,0,0,0,0-.0644l-.1359.3432c-.35.9368-.715,1.8735-1.0439,2.8031,0,.0429-.0644.0715-.093.1072a.7193.7193,0,0,1-.0858-.1144l-.4862-1.2442-.4577-1.18c-.0929-.2431-.193-.4863-.3074-.7151v2.6815c0,.3217.0715.4075.3861.4648.0357,0,.0572,0,.0858.0572s-.0572.0429-.0858.0429h-.8438a.1113.1113,0,0,1-.0858-.0429c-.0286-.0429.05-.0572.0787-.0715a1.5009,1.5009,0,0,0,.2145-.0787.35.35,0,0,0,.1215-.3289V26.5928c0-.2646-.0715-.3218-.4075-.3575a.1577.1577,0,0,1,0-.0573v-.0572h.8723s.0644.0429.0715.0715c.2861.7151.5649,1.4874.8509,2.2382.0787.2145.1645.429.2646.665l.2646-.7151.3861-1.0511c.1359-.379.2789-.758.4219-1.137a.1146.1146,0,0,1,.0786-.0715Zm-.4576.1h-.3a.1072.1072,0,0,0-.1.1716.3308.3308,0,0,1,.0572.15c0,1.03.0429,2.0665,0,3.0961h.3718a2.9374,2.9374,0,0,1-.0572-.429V26.6428a3.09,3.09,0,0,1,.0214-.4147Zm-3.1748,0v.0358l.1.1144c.0429.0429.1144.0715.1287.1215.2431.6078.4791,1.2156.715,1.8234l.5149,1.33c.0643-.2074.2216-.379.05-.5792v-.0357l-1.03-2.7172a.1121.1121,0,0,0-.0715-.0858Zm.1358,3.4609-.0786-.1788-.093.1573Z"/><path class="cls-6" d="M21.3944,26.1208h.9867c-.0429.0572-.0572.1073-.0929.1216a.55.55,0,0,0-.3075.3575c-.2288.7151-.4576,1.43-.6793,2.1452-.1.3361-.2.665-.3075,1.0011a.3686.3686,0,0,1-.0715.0786s-.0643-.05-.0715-.0858c-.1215-.3432-.236-.715-.35-1.03-.1573-.4648-.3146-.9367-.479-1.43a.2088.2088,0,0,0-.043-.1144c-.05.143-.0929.2646-.1287.379l-.5,1.7733-.1287.4219a.208.208,0,0,1-.0787.0787s-.0572-.0429-.0643-.0715c-.2574-.7151-.5149-1.5016-.7651-2.26l-.3432-1.03a.336.336,0,0,0-.2432-.2359c-.0858,0-.0858-.0644-.0643-.1288h1.1441c-.0429.0572-.0715.1073-.1.1144-.1717,0-.2217.0787-.1645.2932s.1.3361.1573.5077l.6078,1.7805a.8831.8831,0,0,0,.0429.1287c.05-.1359.093-.2574.1287-.3718.1645-.5149.3218-1.03.4862-1.5445a.121.121,0,0,0,0-.0715c-.0715-.186-.1287-.3719-.2073-.5435,0-.0643-.1144-.1072-.1645-.1573L19.5,26.1137h1.1941c0,.0858,0,.1287-.0858.1144-.2431,0-.3.1073-.236.3075l.3647,1.2013c.1144.3646.2288.715.35,1.1011l.0357.0715c.0429-.1287.0858-.2359.1144-.3432.186-.6006.379-1.2013.5578-1.8019a.7189.7189,0,0,0,.0429-.1788.3.3,0,0,0-.3361-.3575C21.4087,26.2353,21.3729,26.2138,21.3944,26.1208Zm-3.4323.1c.0572.1287.1287.25.1788.3861l.9581,2.86.0572.1358a.873.873,0,0,1,.0787-.2717.6165.6165,0,0,0,.0644-.2359.7152.7152,0,0,0-.1-.2217h0l-.6721-2.0451a.8369.8369,0,0,1-.0644-.5863Zm1.8162,0a1.9585,1.9585,0,0,1,.2432.808v.0357a1.429,1.429,0,0,1,.0929.1788L20.83,29.453l.05.143.1645-.5148a1.362,1.362,0,0,1-.1216-.2l-.715-2.1451a.5786.5786,0,0,1,0-.4862Zm2.3526,0h-.2932l.1144.2359Z"/><path class="cls-7" d="M34.2367,29.6818h.1859a.25.25,0,0,0,.236-.2574V28.03H33v1.3086c0,.2717.0573.3.3361.35a.8469.8469,0,0,0,.0858.0572v.0357H32.1773a.1222.1222,0,0,1-.0929-.0429c-.0286-.0429.05-.05.0786-.0572a1.0962,1.0962,0,0,0,.2145-.0787.2427.2427,0,0,0,.1073-.143,1.616,1.616,0,0,0,0-.3217V26.4426a.2573.2573,0,0,0-.2789-.2073h-.1144v-.1145h1.3157c0,.1073,0,.1145-.0929.1145-.2145,0-.2932.0643-.3.2788V27.887h1.6733a.5485.5485,0,0,0,0-.1072V26.507c0-.1931-.0858-.2646-.3218-.2717-.0858,0-.1287,0-.1073-.1216h1.3372c0,.0787,0,.1216-.0858.1216-.2574,0-.3289.0786-.3289.3432v2.6957c0,.2932.0429.3432.3289.4005a.3822.3822,0,0,1,.0929.05.2.2,0,0,1-.0929.05h-1.187C34.251,29.7748,34.2152,29.7605,34.2367,29.6818Zm-1.2943,0a3.6782,3.6782,0,0,1-.0643-.4791V26.8573a1.03,1.03,0,0,1,.1-.6149h-.4576a1.8964,1.8964,0,0,1,.0715.3933v2.5527a.8017.8017,0,0,1-.1073.4934Zm1.7734-3.4394c0,.1716.0572.3361.0643.4934v2.3025a1.0082,1.0082,0,0,1-.1072.6149h.45a2.6606,2.6606,0,0,1-.0858-.4076V26.6428a2.7425,2.7425,0,0,1,.0644-.4218Z"/><path class="cls-7" d="M48.2875,26.2281v-.1144h1.3156c0,.0858,0,.1216-.0929.1216-.2288,0-.3.0572-.3075.2788V27.88h1.6947V26.507c0-.2-.0858-.2646-.3146-.2717-.0787,0-.1359,0-.1073-.1216H51.77c0,.1073,0,.1144-.0859.1144-.2288,0-.3146.0858-.3146.3218v2.7672c0,.2288.0572.286.3289.3361a.3.3,0,0,1,.093.05.7165.7165,0,0,1-.1073.05H50.4612c-.0429-.0786,0-.0929.0572-.1.2789-.0429.35-.093.3575-.3289V27.98H49.1884v1.2156c0,.3146,0,.4218.3647.4576l.093.093H48.28c-.0286,0,.0429-.0572.0715-.0644a1.1626,1.1626,0,0,0,.2217-.0787.2646.2646,0,0,0,.1072-.1787V26.7429a2.2208,2.2208,0,0,0,0-.3074c0-.1216-.143-.2-.3-.2Zm.8652,3.4323a3.5745,3.5745,0,0,1-.0644-.472V26.8573a1.1077,1.1077,0,0,1,.1073-.6363h-.4577a1.89,1.89,0,0,1,.0715.3932v2.5242a.8212.8212,0,0,1-.1.5219Zm2.1809,0a2.6922,2.6922,0,0,1-.0644-.4291V26.6571a2.916,2.916,0,0,1,.0644-.4361H50.926a4.46,4.46,0,0,1,.0572.5219v2.3526a.9366.9366,0,0,1-.1073.572Z"/><path class="cls-8" d="M36.2245,29.8034h-.0929V28.6021c.1,0,.1287,0,.1358.0858a1.4943,1.4943,0,0,0,.2646.7722.8008.8008,0,0,0,1.124.139l.0129-.01a.5859.5859,0,0,0,.1859-.4.8365.8365,0,0,0-.4576-.8223c-.2646-.1859-.5434-.35-.808-.5363a.9941.9941,0,0,1-.1931-1.5159,1.0154,1.0154,0,0,1,.9082-.2145,1.7517,1.7517,0,0,1,.4719.1859c.15.0715.1931.0572.2288-.1s.0572-.1.1216-.0787V27.172c-.1144.05-.143,0-.15-.1a1.058,1.058,0,0,0-.35-.7151.6435.6435,0,1,0-.7794,1.0154c.25.1787.522.3361.7794.5148a1.43,1.43,0,0,1,.615.6078.937.937,0,0,1-.522,1.3086,1.3231,1.3231,0,0,1-1.2085-.1144h-.0643c-.1216-.0573-.1573,0-.1931.0929Zm.3147-3.468h0a.8007.8007,0,0,0-.1073,1.1083,3.7977,3.7977,0,0,0,.5792.4862c.193.143.4147.2574.6078.4076a.8581.8581,0,0,1,.2475,1.188c-.0126.0192-.026.038-.04.0562h0a.3632.3632,0,0,0,.1216-.05.8724.8724,0,0,0,.25-1.0153,1.3082,1.3082,0,0,0-.5292-.5506c-.286-.2-.5863-.379-.8723-.5721a.765.765,0,0,1-.329-.715,2.3863,2.3863,0,0,1,.0858-.3Zm-.1288,3.139h0l-.1716-.3646v.3789Zm1.4874-3.0175.143.2789v-.3075Z"/><path class="cls-8" d="M52.3633,29.7891v-1.187h.1072a5.5411,5.5411,0,0,0,.1573.6149.8008.8008,0,0,0,1.2514.3861.6509.6509,0,0,0,.2-.3861.7865.7865,0,0,0-.4148-.8294c-.2788-.186-.572-.3576-.8437-.5578a1.0082,1.0082,0,0,1-.32-1.3895l.0268-.0406a.88.88,0,0,1,.7151-.35,1.0586,1.0586,0,0,1,.715.1788l.0787.0429c.1072.0572.1716,0,.193-.1s.05-.1144.1287-.093V27.172c-.1215.05-.143,0-.1573-.093a1.0151,1.0151,0,0,0-.3432-.715.6458.6458,0,1,0-.7866,1.0082c.2217.1573.4577.3.7151.4505a1.6721,1.6721,0,0,1,.715.665.9436.9436,0,0,1-.5362,1.3228,1.3516,1.3516,0,0,1-1.2013-.1215H52.685c-.0858-.0358-.15-.0358-.1644.0858S52.4562,29.832,52.3633,29.7891Zm.4147-3.4537h0a.7937.7937,0,0,0-.1073,1.1083,3.2156,3.2156,0,0,0,.5792.4862c.1931.143.4147.2574.6007.4076a.851.851,0,0,1,.2562,1.1758q-.0228.0354-.0489.0684h0a.364.364,0,0,0,.1216-.05.858.858,0,0,0,.25-1.0153,1.229,1.229,0,0,0-.5291-.5506c-.286-.2-.5863-.379-.8652-.5721a.7148.7148,0,0,1-.3289-.715,1.5491,1.5491,0,0,1,.0786-.3h0Zm-.1287,3.139h0l-.1716-.3646v.3789Zm1.4658-3.0175.1359.2717v-.3432Z"/><path class="cls-3" d="M31.4623,26.1137h.0786v1.1655h-.15c-.0429-.1573-.0787-.3146-.1287-.4648a.93.93,0,0,0-.8509-.665.98.98,0,0,0-1.1576.7612l-.0008.004a3.18,3.18,0,0,0-.1287,1.4873,1.9012,1.9012,0,0,0,.3.9152,1.0439,1.0439,0,0,0,1.4442.3065q.0256-.0166.05-.0348a.9864.9864,0,0,0,.4219-.7651,1.8379,1.8379,0,0,1,0-.2073s.0787-.05.15-.093v1.28c-.0715,0-.1287,0-.1287-.1a.1435.1435,0,0,0-.2574-.1216,1.6373,1.6373,0,0,1-1.9521,0,1.6947,1.6947,0,0,1-.5721-1.0368,2.7394,2.7394,0,0,1,.1144-1.3729A1.566,1.566,0,0,1,30.34,26.0636a1.4729,1.4729,0,0,1,.715.2575,1.2655,1.2655,0,0,0,.2217.1072Zm-1.9092,3.4894h0l-.1359-.15a1.8948,1.8948,0,0,1-.4-1.0368,2.8031,2.8031,0,0,1,.4076-2.0236h0a3.09,3.09,0,0,0-.3575.3217,1.73,1.73,0,0,0-.379.98,2.26,2.26,0,0,0,.2574,1.3943A1.1367,1.1367,0,0,0,29.5531,29.6031Zm1.852-2.7458v-.4l-.143.0429Zm0,2.1881-.143.3218h.143Z"/><path class="cls-3" d="M45.0483,27.172V26.1137h2.86V27.172h-.1216v-.25a1.0289,1.0289,0,0,0-.1716-.5148.6573.6573,0,0,0-.4576-.1859,3.7157,3.7157,0,0,0-.4005,0v2.9531c0,.3647.0716.4433.4291.4863a.3249.3249,0,0,1,.0929.0572.2689.2689,0,0,1-.1.0429H45.7633a.2424.2424,0,0,1-.1072-.05v-.0429h.2216a.3217.3217,0,0,0,.3075-.3,1.4035,1.4035,0,0,0,0-.1716v-2.96a1.5376,1.5376,0,0,0-.7151.0786.5648.5648,0,0,0-.2788.4576.7994.7994,0,0,1-.0572.3576c-.0572.1215-.05.0643-.0787.1ZM46.6428,26.2H46.364v2.9031a.8652.8652,0,0,1-.1359.5363h.5506a.6081.6081,0,0,1-.1359-.4433V26.2Zm.9225,0,.2574.3432V26.2Zm-2.4026.379.2645-.3719h-.2645Z"/><path class="cls-3" d="M26.9432,26.2281v2.96c0,.3647.0715.45.429.4863.0572,0,.1144,0,.0858.0929H25.8849l.0929-.0929a.1643.1643,0,0,1,.0858,0c.35,0,.3933-.1931.3933-.4434V26.3068a.6458.6458,0,0,0,0-.0787,2.2174,2.2174,0,0,0-.6149.0572.63.63,0,0,0-.3933.5.851.851,0,0,1-.05.35c-.05.1144,0,.0787-.1287.0787V26.1137h2.86V27.172h-.1215a.5916.5916,0,0,0-.0358-.25.95.95,0,0,0-.1859-.5291.7145.7145,0,0,0-.4719-.1716A3.1374,3.1374,0,0,0,26.9432,26.2281Zm-.379,0v2.6957a1.2812,1.2812,0,0,1-.1287.7151h.5434a.6224.6224,0,0,1-.1359-.45V26.221Zm1.4873,0h-.2932l.2646.3432ZM25.3629,26.6l.2646-.3718h-.2646Z"/><path class="cls-5" d="M25.4129,29.7676H24.1688s.05-.0643.0786-.0715c.3575-.0858.3647-.093.236-.4505s-.1859-.5148-.286-.7651a.1144.1144,0,0,0-.0858-.0643h-1.23a7.7865,7.7865,0,0,0-.2789.7794c-.0858.3432,0,.4362.3432.5005a.8469.8469,0,0,0,.0858.0572v.0358H22.0307c0-.0429,0-.1.05-.1073.236-.0858.3075-.2932.3861-.4862.1788-.4434.35-.8938.522-1.3372l.6078-1.63a.3054.3054,0,0,1,0-.0715l.0787-.0787a.6291.6291,0,0,1,.0643.0787l.3218.808.9653,2.4026a.4365.4365,0,0,0,.286.2932S25.37,29.7176,25.4129,29.7676Zm-1.68-3.4823h0a2.0409,2.0409,0,0,0-.1216.3289c0,.0572.0572.1216.0858.1859h0c.1788.5006.35,1.0011.5363,1.4945.1144.3075.236.6006.3575.901a.5143.5143,0,0,1,0,.4576h.5149a2.7637,2.7637,0,0,1-.1716-.3218c-.3-.7722-.6007-1.5445-.9082-2.3239Zm-.1931.4576L22.9532,28.28h1.1584Zm-1.0583,2.6743L22.31,29.66h.3Z"/><path class="cls-7" d="M43.3107,26.2281v-.1144h1.3085c0,.1073,0,.1144-.0929.1144-.2145,0-.2789.0644-.3.2789v2.81c0,.286.0643.3218.3432.3719a.2981.2981,0,0,1,.0858.0572v.0429H43.4323a.922.922,0,0,1-.1288-.0429,1.0752,1.0752,0,0,1,.1216-.0715.1835.1835,0,0,0,.1716-.0644.2431.2431,0,0,0,.1073-.143,1.5875,1.5875,0,0,0,0-.3218V26.45a.25.25,0,0,0-.2431-.2074Zm.8581,3.4323a4.0287,4.0287,0,0,1-.0572-.5149v-2.424a3.8292,3.8292,0,0,1,.0643-.5h-.4147a2.4121,2.4121,0,0,1,.0643.3861v2.5813a3.2722,3.2722,0,0,1-.0572.472Z"/><path class="cls-9" d="M25.6918,39.0418a19.7917,19.7917,0,0,1-9.2957.4934,19.4207,19.4207,0,0,1-10.89-5.9278A19.3062,19.3062,0,0,1,.1573,21.1512,19.2208,19.2208,0,0,1,4.0114,8.18,19.7927,19.7927,0,0,1,25.6632.9367a19.05,19.05,0,0,0-16.26,4.0687A19.0191,19.0191,0,0,0,2.2667,20.1645,19.0276,19.0276,0,0,0,9.5459,35.1162,19.1887,19.1887,0,0,0,25.6918,39.0418Z"/><path class="cls-9" d="M25.7919,39.0132h0Z"/><path class="cls-10" d="M17.6975,19.9785a4.2907,4.2907,0,0,1,.0572-.5219c.093-.5077.1931-1.0154.2861-1.5231.1287-.715.2431-1.43.3646-2.1452s.2789-1.63.4148-2.4454l.3861-2.2667c.15-.8724.3-1.7448.4433-2.6171.1144-.6507.2217-1.2943.329-1.9378h0V17.483c0,.0787,0,.1073.1.1073a1.19,1.19,0,0,1,.3575,0,7.6936,7.6936,0,0,0,1.43.1358.1785.1785,0,0,0,.1859.1287c.7151.0358,1.473.0859,2.2024.1288l1.6017.1,2.045.1215,1.6232.1,2.0379.1287,2.045.1573,1.6232.1,2.0379.1215,2.0594.1359,2.0093.1215,1.63.1,2.0808.1359,2.0021.1216,2.0522.1287,1.616.1,2.0451.1287,1.58.0929,1.2514.0715H21.3371v-.1358a1.3014,1.3014,0,0,0-2.5956.1358Z"/><path class="cls-11" d="M21.3085,19.9785H55.5667l-1.8735.1073-2.0522.1287-1.5874.143-2.0522.1287-1.63.1-2.0379.15-2.0093.1287-1.63.1-2.0808.093-1.5874.1-1.9879.1287-1.6088.1-2.0522.1287-1.6017.1-2.0379.1216-2.0451.1287-2.0236.1215-2.0236.1288a3.0787,3.0787,0,0,0-.6793.05c-.2216.05-.3361.093-.5077.1287a2.31,2.31,0,0,1-2.69-1.8525q-.0117-.0637-.02-.1282v-.3361h.9939a.7867.7867,0,0,0,.0358.2861,1.2941,1.2941,0,0,0,1.5334.9993q.0272-.0057.054-.0126A1.3155,1.3155,0,0,0,21.3085,19.9785Z"/><path class="cls-9" d="M21.9235,17.7619a7.6937,7.6937,0,0,1-1.43-.1359,1.1967,1.1967,0,0,0-.3575,0c-.0787,0-.1144,0-.1-.1072V6.507c.05.2574.1.522.143.7794l.3646,2.1451c.1288.7723.2646,1.5445.3933,2.3168l.6007,3.5252c.1358.7866.2645,1.5731.4,2.36A.2012.2012,0,0,0,21.9235,17.7619Z"/><path class="cls-10" d="M55.3093,32.4705v.2074H17.7976v-.2074Z"/><path class="cls-12" d="M42.4383,26.2281a3.09,3.09,0,0,0-.0643.4147V29.217a2.9374,2.9374,0,0,0,.0572.429h-.3718c.0786-1.03,0-2.0665,0-3.0961a.33.33,0,0,0-.0573-.15.1073.1073,0,0,1,.1-.1716Z"/><path class="cls-13" d="M39.2635,26.2067h.3718a.33.33,0,0,1,.0715.0858l1.0512,2.7243v.0358c.1716.2,0,.3718-.05.5792l-.5148-1.33c-.236-.6078-.472-1.2156-.7151-1.8234,0-.05-.0858-.0787-.1287-.1216l-.1-.1144Z"/><path class="cls-14" d="M39.3994,29.6675h-.2l.093-.1573Z"/><path class="cls-13" d="M17.9621,26.221h.4934a.8364.8364,0,0,0,.0643.5863l.6722,2.045h0a.716.716,0,0,1,.1.2217.6135.6135,0,0,1-.0644.236,1.5058,1.5058,0,0,1-.0786.2717l-.0572-.1359-.9582-2.86C18.0908,26.4569,18.0193,26.35,17.9621,26.221Z"/><path class="cls-13" d="M19.7783,26.221h.5006a.5786.5786,0,0,0,0,.4862l.715,2.1451a1.362,1.362,0,0,0,.1216.2l-.1645.5148-.05-.143-.7151-2.2095a1.429,1.429,0,0,0-.0929-.1788V27A1.9584,1.9584,0,0,0,19.7783,26.221Z"/><path class="cls-14" d="M22.1666,26.221l-.2145.2359-.1144-.2359Z"/><path class="cls-15" d="M32.9424,29.66h-.45a.8009.8009,0,0,0,.1072-.4934V26.6142a1.8967,1.8967,0,0,0-.0715-.3932h.4576a1.03,1.03,0,0,0-.1.6149v2.3454A3.6928,3.6928,0,0,0,32.9424,29.66Z"/><path class="cls-15" d="M34.7158,26.221h.4075a2.73,2.73,0,0,0-.0643.4218v2.6028a2.6425,2.6425,0,0,0,.0643.4148h-.45a1.0084,1.0084,0,0,0,.1072-.615V26.7429C34.773,26.557,34.7372,26.3926,34.7158,26.221Z"/><path class="cls-15" d="M49.1527,29.66h-.4505a.823.823,0,0,0,.1-.522V26.6142a1.8967,1.8967,0,0,0-.0715-.3932h.4576a1.1076,1.1076,0,0,0-.1072.6363v2.3311A3.5661,3.5661,0,0,0,49.1527,29.66Z"/><path class="cls-15" d="M51.3336,29.66h-.45a.9369.9369,0,0,0,.1073-.5721V26.7358a4.4815,4.4815,0,0,0-.0573-.522h.4076a2.919,2.919,0,0,0-.0643.4362v2.5742A2.6814,2.6814,0,0,0,51.3336,29.66Z"/><path class="cls-16" d="M36.5249,26.364a2.37,2.37,0,0,0-.0859.3.765.765,0,0,0,.329.715c.286.1931.5863.3719.8723.5721a1.3082,1.3082,0,0,1,.5292.5506.8724.8724,0,0,1-.2717,1.0439.364.364,0,0,1-.1216.05h0a.858.858,0,0,0-.1512-1.204c-.0181-.0142-.0369-.0276-.0562-.04-.193-.15-.4147-.2646-.6078-.4076a3.8025,3.8025,0,0,1-.5792-.4862.8008.8008,0,0,1,.1073-1.1083Z"/><path class="cls-17" d="M36.41,29.4744H36.246v-.3789l.1716.3646Z"/><path class="cls-17" d="M37.8978,26.4569h.143v.3075Z"/><path class="cls-16" d="M52.7565,26.364a1.5491,1.5491,0,0,0-.0786.3.7148.7148,0,0,0,.3289.715c.2789.1931.5792.3719.8652.5721a1.229,1.229,0,0,1,.5291.5506.858.858,0,0,1-.25,1.0153.3661.3661,0,0,1-.1216.05h0a.8509.8509,0,0,0-.1389-1.1953c-.022-.0174-.0449-.0337-.0684-.0489-.186-.15-.4076-.2646-.6007-.4076a3.2156,3.2156,0,0,1-.5792-.4862.7937.7937,0,0,1,.1073-1.1083Z"/><path class="cls-17" d="M52.6493,29.4744h-.1716v-.3789l.1716.3646Z"/><path class="cls-17" d="M54.1151,26.4569l.1359-.0357v.3074Z"/><path class="cls-13" d="M29.4315,26.3854a2.8031,2.8031,0,0,0-.4075,2.0236,1.8945,1.8945,0,0,0,.4,1.0368l.1358.15h0a1.1372,1.1372,0,0,1-.6077-.5291,2.26,2.26,0,0,1-.2575-1.3944,1.73,1.73,0,0,1,.379-.98,3.09,3.09,0,0,1,.3575-.3218Z"/><path class="cls-18" d="M31.4051,26.8573l-.143-.336.143-.0429Z"/><path class="cls-17" d="M31.4122,29.0454v.3575h-.143Z"/><path class="cls-12" d="M46.6214,26.221v2.996a.6075.6075,0,0,0,.1358.4433h-.55a.8654.8654,0,0,0,.1358-.5362V26.221Z"/><path class="cls-18" d="M47.5438,26.2138h.286v.3432Z"/><path class="cls-18" d="M45.1412,26.5928V26.221h.2646Z"/><path class="cls-12" d="M26.5642,26.221h.2788V29.21a.6225.6225,0,0,0,.1359.45h-.522a1.28,1.28,0,0,0,.1287-.7151V26.221Z"/><path class="cls-18" d="M28.0515,26.2138v.3432l-.2646-.3432Z"/><path class="cls-18" d="M25.3629,26.5856v-.3718h.2646Z"/><path class="cls-13" d="M23.7326,26.2853l.286.7151c.2932.7937.6078,1.6017.9081,2.3167a2.779,2.779,0,0,0,.1716.3218h-.5148a.5149.5149,0,0,0,0-.4576c-.1216-.3-.2431-.5935-.3575-.901-.186-.4934-.3576-.9939-.5363-1.4945h0c0-.0643-.093-.1287-.0858-.1859a2.0405,2.0405,0,0,1,.1215-.3289Z"/><path class="cls-14" d="M22.4812,29.4172l.1287.2432h-.3Z"/><path class="cls-15" d="M44.1688,29.66h-.4a3.2722,3.2722,0,0,0,.0572-.472V26.6071a2.4121,2.4121,0,0,0-.0643-.3861h.4147a3.8292,3.8292,0,0,0-.0643.5v2.424A4.0287,4.0287,0,0,0,44.1688,29.66Z"/><path class="cls-19" d="M21.3085,19.9785a1.3155,1.3155,0,0,1-.9939,1.2728,1.2942,1.2942,0,0,1-1.5748-.9327q-.0069-.0268-.0126-.054a.7879.7879,0,0,0-.0357-.286,1.3014,1.3014,0,0,1,2.5956-.1359Zm-1.287,1.2085a1.18,1.18,0,0,0,.0015-2.36h-.0015a1.2085,1.2085,0,0,0-1.2228,1.194v0a1.1942,1.1942,0,0,0,1.2221,1.1655Z"/></g></g></g></g></svg>