<svg id="Layer_1" data-name="Layer 1" xmlns="http://www.w3.org/2000/svg" width="58" height="58" viewBox="0 0 58 58"><defs><style>.cls-1{fill:#9b948f;}.cls-2{fill:#9a9490;}.cls-3{fill:#c99618;}.cls-4{fill:#98721d;}.cls-5{fill:#c89618;}.cls-6{fill:#99928e;}</style></defs><g id="Layer_2" data-name="Layer 2"><g id="Layer_1-2" data-name="Layer 1-2"><g id="Layer_2-2" data-name="Layer 2-2"><g id="Shape_1_Image" data-name="Shape 1 Image"><path class="cls-1" d="M.2048,28.3064a19.8941,19.8941,0,0,1,4.3618-11.77,20.1947,20.1947,0,0,1,4.29-3.9756,19.5092,19.5092,0,0,1,5.1913-2.56A17.7511,17.7511,0,0,1,17.4089,9.2c.6722-.0786,1.3086-.1144,1.9664-.2h1.6661a1.8961,1.8961,0,0,0,.286,0,.8734.8734,0,0,0,.1144,0h.0715a.3889.3889,0,0,0,.0715.05c.7865.0929,1.5016.1573,2.2524.286a18.7227,18.7227,0,0,1,4.5334,1.43h.0715c-.4076-.1216-.8152-.2717-1.23-.3718-.715-.1788-1.48-.35-2.2238-.4934-.4362-.0787-.8938-.1-1.3371-.1573a15.0478,15.0478,0,0,0-2.0449-.0785,8.61,8.61,0,0,0-1.287.0644c-.5863.0572-1.18.1215-1.7591.2288-.7151.143-1.43.3-2.1452.5077a19.92,19.92,0,0,0-1.9092.6793c-.5434.2216-1.0725.479-1.5945.715A16.4885,16.4885,0,0,0,10.13,13.655c-.4719.3718-.9367.7651-1.38,1.1727a18.2226,18.2226,0,0,0-2.6529,3.0389,19.1729,19.1729,0,0,0-3.0675,7.0219c-.1431.6793-.25,1.3657-.329,2.0593a18.8266,18.8266,0,0,0-.0858,2.86,18.6051,18.6051,0,0,0,.3075,2.7387,19.7364,19.7364,0,0,0,.7151,2.7172A19.1093,19.1093,0,0,0,5.21,38.746a19.4537,19.4537,0,0,0,1.7375,2.4955,17.1705,17.1705,0,0,0,1.63,1.7519,19.1775,19.1775,0,0,0,7.651,4.4762,16.18,16.18,0,0,0,2.46.5792c.5434.0786,1.094.143,1.6446.2a16.383,16.383,0,0,0,2.5813.0429,17.77,17.77,0,0,0,3.5753-.5291c.5721-.15,1.1441-.3361,1.7161-.5006a.0929.0929,0,0,1,.0858,0c-.2288.1-.4647.2145-.715.3-.6007.2146-1.1941.4291-1.8091.6078s-1.2871.329-1.9377.4648a11.1983,11.1983,0,0,1-1.1941.1859c-.5149.0572-1.0368.0858-1.5588.1287,0,0-.0429.0358-.0644.05h-1.63a.5409.5409,0,0,0-.0858-.05,19.3013,19.3013,0,0,1-3.0747-.3718A19.8814,19.8814,0,0,1,.2548,30.3228a.0963.0963,0,0,0-.05-.0786v-.05a.18.18,0,0,0,0-.0786ZM25.8966,48.0418A19.1772,19.1772,0,0,1,9.7507,44.1162,19.0279,19.0279,0,0,1,2.4715,29.1645,18.93,18.93,0,0,1,9.6077,14.0054a19.2584,19.2584,0,0,1,16.26-4.0687A19.7929,19.7929,0,0,0,4.2162,17.18,19.2212,19.2212,0,0,0,.3621,30.1512,19.3069,19.3069,0,0,0,5.7107,42.6074,19.4209,19.4209,0,0,0,16.5723,48.55,19.7924,19.7924,0,0,0,25.8966,48.0418Z"/><path class="cls-2" d="M22.2428,26.7833l1.0011.0572,1.473.1.951.05,1.4873.1.951.05,1.43.1.9439.05,1.4945.1.93.05,1.5088.1.901.05,1.5374.1.9081.05,1.5231.1.8938.05,1.5444.1.9011.0572,1.5373.0929.901.0572,1.5374.093.9009.0572,1.53.093.9152.0572,1.5232.1.8723.05,1.58.1.951.05,1.48.1.93.05A4.2042,4.2042,0,0,1,57.7948,29l-.8009.0215L55.6786,29.1l-.6578.0429-1.0511.0787h-.5648L52.3321,29.3H51.71l-1.0082.0715H50.144l-1.0511.0787H48.528l-1.0726.0786h-.6149l-1.3157.2074-.7151.0429-.9867.1h-.5581l-1.08.0787h-.6l-1.3372.1215-.7151.05-.9581.0786h-.5077l-.7151.0572H36.93l-1.044.05-.98.0715h-.5149l-1.0863.0793h-.45l-1.0655.05-1.2155.0787-.8224.05-1.2155.0715-1.2156.0787-1.2156.0715-.7937.05-.9654.0787H23.73l-1.0225.1716H22.1a5.1517,5.1517,0,0,0-.9367.0572,2.282,2.282,0,0,0-.4219.1073,2.4025,2.4025,0,0,1-2.892-1.7833h0c-.0066-.0275-.0126-.0552-.0182-.0829a2.7131,2.7131,0,0,1,.0715-1.2657,6.2853,6.2853,0,0,0,.1789-.7722c.0715-.4147.1429-.8295.2073-1.2442s.15-.8438.2216-1.2656.1573-.9368.2431-1.43.1359-.8367.2074-1.2585.1645-.9368.2431-1.43l.236-1.43c.0787-.4648.1645-.93.2431-1.3944s.1359-.8438.2074-1.2656.1644-.9368.2431-1.43a2.8761,2.8761,0,0,1,.0787-.4863h0Q21.2349,20.82,22.2428,26.7833Zm-.1145,0v-.1215c-.1359-.7866-.2646-1.5731-.4-2.36l-.6007-3.5252c-.1287-.7723-.2646-1.5445-.3932-2.3168l-.3651-2.1448c-.0429-.2574-.093-.522-.143-.7794h0c-.1073.6435-.2146,1.2871-.329,1.9378-.143.8723-.2931,1.7447-.4433,2.6171l-.3861,2.2667c-.1359.8151-.2717,1.63-.4148,2.4454s-.2359,1.43-.3646,2.1452c-.093.5077-.1931,1.0154-.2861,1.5231a4.2907,4.2907,0,0,0-.0572.5219v.3361A2.31,2.31,0,0,0,20.5271,31.33q.0645-.0081.1282-.02c.1717-.0357.3361-.1072.5077-.1287s.45-.0357.6794-.05l2.0235-.1288L25.89,30.881l2.045-.1287,2.038-.1216,1.6017-.1,2.0522-.1287,1.616-.1144,2.0522-.1287,1.5231-.1,2.0522-.1216,1.63-.1,2.0379-.1,2.0379-.1216,1.63-.1,2.0522-.1573,1.5874-.1,2.0522-.1287,1.8735-.1072h.0143l-1.2371-.1431-1.5945-.1L50.9091,28.65l-1.616-.1-2.0522-.1287-1.9878-.1144-2.0383-.1292-1.63-.1-2.0522-.1287-2.045-.129L35.45,27.6984l-1.6375-.1073-2.0164-.1287-2.0379-.1287-1.6231-.1-2.045-.1215-1.5731-.093c-.7151-.0429-1.4659-.0929-2.2024-.1287a.1788.1788,0,0,1-.1859-.1287Z"/><path class="cls-3" d="M25.8966,48.0418a19.7916,19.7916,0,0,1-9.2957.4934,19.4214,19.4214,0,0,1-10.89-5.9278A19.3064,19.3064,0,0,1,.3621,30.1512,19.2212,19.2212,0,0,1,4.2162,17.18,19.7929,19.7929,0,0,1,25.868,9.9367a19.05,19.05,0,0,0-16.26,4.0687A19.0193,19.0193,0,0,0,2.4715,29.1645,19.0279,19.0279,0,0,0,9.7507,44.1162,19.1888,19.1888,0,0,0,25.8966,48.0418Z"/><path class="cls-4" d="M17.9023,28.9785a4.2907,4.2907,0,0,1,.0572-.5219c.093-.5077.1931-1.0154.2861-1.5231.1287-.715.2431-1.43.3646-2.1452s.2789-1.63.4148-2.4454l.3861-2.2667c.15-.8724.3-1.7448.4434-2.6171.1144-.6507.2217-1.2943.329-1.9378h0V26.483c0,.0787,0,.1073.1.1073a1.19,1.19,0,0,1,.3575,0,7.6918,7.6918,0,0,0,1.43.1358.1784.1784,0,0,0,.1859.1287c.7151.0358,1.473.0859,2.2024.1288l1.6017.1,2.045.1215,1.6232.1,2.0379.1287,2.0449.1573,1.6232.1,2.0379.1215,2.0594.1359,2.0093.1215,1.63.1,2.0808.1359,2.0021.1216,2.0522.1287,1.616.1,2.0451.1287,1.58.0929,1.2514.0715H21.5419v-.1358a1.3014,1.3014,0,0,0-2.5956.1358Z"/><path class="cls-5" d="M21.5133,28.9785H55.7715l-1.8735.1073-2.0522.1287-1.5874.143-2.0522.1287-1.63.1-2.0379.15-2.0093.1287-1.63.1-2.0808.093-1.5873.1-1.9879.1287-1.6088.1-2.0522.1287-1.6017.1-2.0379.1216-2.0451.1287-2.0236.1215-2.0236.1288a3.0813,3.0813,0,0,0-.6793.05c-.2216.05-.3361.093-.5077.1287a2.31,2.31,0,0,1-2.69-1.8525q-.0117-.0638-.02-.1282v-.3361h.9939a.7854.7854,0,0,0,.0358.2861,1.294,1.294,0,0,0,1.5332.9993h0q.0272-.0057.054-.0126A1.3153,1.3153,0,0,0,21.5133,28.9785Z"/><path class="cls-3" d="M22.1283,26.7619a7.6935,7.6935,0,0,1-1.43-.1359,1.1967,1.1967,0,0,0-.3575,0c-.0787,0-.1144,0-.1-.1072V15.507c.05.2574.1.522.143.7794l.3646,2.1451c.1288.7723.2646,1.5445.3933,2.3168l.6007,3.5252c.1358.7866.2645,1.5731.4,2.36A.202.202,0,0,0,22.1283,26.7619Z"/><path class="cls-6" d="M21.5133,28.9785a1.3154,1.3154,0,0,1-.9939,1.2728,1.2941,1.2941,0,0,1-1.5747-.9327h0q-.0069-.0268-.0126-.054a.7872.7872,0,0,0-.0357-.286,1.3014,1.3014,0,0,1,2.5956-.1359Zm-1.287,1.2085a1.18,1.18,0,1,0,.0015-2.36h-.0015a1.2086,1.2086,0,0,0-1.2228,1.194h0a1.1942,1.1942,0,0,0,1.2221,1.1655Z"/></g></g></g></g></svg>