<svg id="Layer_1" data-name="Layer 1" xmlns="http://www.w3.org/2000/svg" width="58.0001" height="58" viewBox="0 0 58.0001 58"><defs><style>.cls-1{fill:#9b948f;}.cls-2{fill:#9a9490;}.cls-3{fill:#958f8e;}.cls-4{fill:#9b9491;}.cls-5{fill:#9c9592;}.cls-6{fill:#99938f;}.cls-7{fill:#9a9390;}.cls-8{fill:#c99618;}.cls-9{fill:#98721d;}.cls-10{fill:#c89618;}.cls-11{fill:#c89619;}.cls-12{fill:#c8961d;}.cls-13{fill:#c29532;}.cls-14{fill:#c8961a;}.cls-15{fill:#c8961c;}.cls-16{fill:#c69623;}.cls-17{fill:#c49629;}.cls-18{fill:#99928e;}</style></defs><g id="Layer_2" data-name="Layer 2"><g id="Layer_1-2" data-name="Layer 1-2"><g id="Layer_2-2" data-name="Layer 2-2"><g id="Shape_1_Image" data-name="Shape 1 Image"><path class="cls-1" d="M.2049,28.3064a19.8934,19.8934,0,0,1,4.3618-11.77,20.1923,20.1923,0,0,1,4.29-3.9756,19.5077,19.5077,0,0,1,5.1913-2.56A17.7493,17.7493,0,0,1,17.409,9.2c.6722-.0786,1.3086-.1144,1.9664-.2h1.6661a1.8961,1.8961,0,0,0,.286,0,.8734.8734,0,0,0,.1144,0h.0715a.3822.3822,0,0,0,.0715.05c.7865.0929,1.5016.1573,2.2524.286a18.7255,18.7255,0,0,1,4.5334,1.43h.0715c-.4076-.1216-.8152-.2717-1.23-.3718-.715-.1788-1.48-.35-2.2238-.4934-.4362-.0787-.8938-.1-1.3371-.1573a15.049,15.049,0,0,0-2.0449-.0785,8.61,8.61,0,0,0-1.2871.0644c-.5863.0572-1.18.1215-1.759.2288-.7151.143-1.43.3-2.1452.5077a19.91,19.91,0,0,0-1.9092.6793c-.5434.2216-1.0725.479-1.5945.715A16.4805,16.4805,0,0,0,10.13,13.655c-.4719.3718-.9367.7651-1.38,1.1727a18.218,18.218,0,0,0-2.6529,3.0389,19.1712,19.1712,0,0,0-3.0675,7.0219c-.1431.6793-.25,1.3657-.329,2.0593a18.8008,18.8008,0,0,0-.0858,2.86,18.5916,18.5916,0,0,0,.3075,2.7387,19.7222,19.7222,0,0,0,.7151,2.7172A19.0957,19.0957,0,0,0,5.21,38.746a19.4437,19.4437,0,0,0,1.7375,2.4955,17.148,17.148,0,0,0,1.63,1.7519,19.1775,19.1775,0,0,0,7.651,4.4762,16.1746,16.1746,0,0,0,2.46.5792c.5434.0786,1.094.143,1.6446.2a16.3828,16.3828,0,0,0,2.5813.0429,17.7723,17.7723,0,0,0,3.5753-.5291c.5721-.15,1.1441-.3361,1.7161-.5006a.0929.0929,0,0,1,.0858,0c-.2288.1-.4647.2145-.715.3-.6007.2146-1.1941.4291-1.8091.6078s-1.2871.329-1.9378.4648a11.1944,11.1944,0,0,1-1.1941.1859c-.5149.0572-1.0368.0858-1.5588.1287,0,0-.0429.0358-.0644.05h-1.63a.5365.5365,0,0,0-.0858-.05,19.304,19.304,0,0,1-3.0747-.3718A19.8813,19.8813,0,0,1,.2549,30.3228a.0967.0967,0,0,0-.05-.0786v-.05a.18.18,0,0,0,0-.0786ZM25.8967,48.0418A19.1771,19.1771,0,0,1,9.7508,44.1162,19.0273,19.0273,0,0,1,2.4716,29.1645,18.9292,18.9292,0,0,1,9.6078,14.0054a19.2584,19.2584,0,0,1,16.26-4.0687A19.7928,19.7928,0,0,0,4.2163,17.18,19.2207,19.2207,0,0,0,.3622,30.1512,19.3059,19.3059,0,0,0,5.7108,42.6074,19.42,19.42,0,0,0,16.5724,48.55,19.7925,19.7925,0,0,0,25.8967,48.0418Z"/><path class="cls-2" d="M22.2428,26.7833l1.0011.0572,1.473.1.951.05,1.4873.1.951.05,1.43.1.9439.05,1.4945.1.93.05,1.5088.1.9009.05,1.5374.1.9081.05,1.5231.1.8938.05,1.5445.1.901.0572,1.5373.0929.901.0572,1.5374.093.9009.0572,1.53.093.9153.0572,1.5231.1.8723.05,1.58.1.951.05,1.48.1.93.05A4.2078,4.2078,0,0,1,57.7949,29l-.8009.0215L55.6786,29.1l-.6578.0429-1.0511.0787h-.5648L52.3322,29.3H51.71l-1.0082.0715h-.5578L49.093,29.45h-.5649l-1.0726.0786h-.6149l-1.3157.2074-.7151.0429-.9867.1h-.5582l-1.08.0787h-.6l-1.3372.1215-.715.05-.9582.0786h-.5076l-.7151.0572H36.93l-1.044.05-.98.0715h-.5149l-1.0862.0793h-.4505l-1.0655.05-1.2155.0787-.8224.05-1.2155.0715-1.2156.0787-1.2156.0715-.7937.05-.9654.0787H23.73l-1.0225.1716H22.1a5.1512,5.1512,0,0,0-.9367.0572,2.28,2.28,0,0,0-.4219.1073,2.4025,2.4025,0,0,1-2.8921-1.7833h0c-.0066-.0275-.0126-.0552-.0182-.0829a2.7118,2.7118,0,0,1,.0715-1.2657,6.285,6.285,0,0,0,.1788-.7722c.0715-.4147.143-.8295.2074-1.2442s.15-.8438.2216-1.2656.1573-.9368.2431-1.43.1359-.8367.2074-1.2585.1645-.9368.2431-1.43l.236-1.43c.0787-.4648.1645-.93.2431-1.3944s.1359-.8438.2074-1.2656.1644-.9368.2431-1.43a2.8562,2.8562,0,0,1,.0787-.4863h0Q21.2348,20.82,22.2428,26.7833Zm-.1144,0v-.1215c-.1359-.7866-.2646-1.5731-.4-2.36l-.6007-3.5252c-.1287-.7723-.2646-1.5445-.3933-2.3168l-.365-2.1448c-.0429-.2574-.093-.522-.143-.7794h0c-.1073.6435-.2146,1.2871-.329,1.9378-.143.8723-.2931,1.7447-.4433,2.6171l-.3861,2.2667c-.1359.8151-.2717,1.63-.4148,2.4454s-.2359,1.43-.3646,2.1452c-.093.5077-.1931,1.0154-.2861,1.5231a4.2907,4.2907,0,0,0-.0572.5219v.3361A2.31,2.31,0,0,0,20.5272,31.33q.0643-.0081.1282-.02c.1716-.0357.3361-.1072.5077-.1287s.45-.0357.6793-.05l2.0236-.1288L25.89,30.881l2.045-.1287,2.0379-.1216,1.6017-.1,2.0522-.1287,1.616-.1144,2.0522-.1287,1.5231-.1,2.0522-.1216,1.63-.1,2.0379-.1,2.0379-.1216,1.63-.1,2.0522-.1573,1.5874-.1,2.0522-.1287,1.8735-.1072h.0143l-1.2371-.1431-1.5945-.1L50.9092,28.65l-1.616-.1-2.0522-.1287-1.9878-.1144-2.0383-.1292-1.63-.1-2.0522-.1287-2.045-.129L35.45,27.6984l-1.6375-.1073-2.0164-.1287-2.0379-.1287-1.6232-.1-2.045-.1215-1.5731-.093c-.7151-.0429-1.4659-.0929-2.2024-.1287a.1788.1788,0,0,1-.1859-.1287Z"/><path class="cls-3" d="M55.6143,41.37v.4147H17.91V41.37Zm-.1.1H18.0025v.2074H55.5142Z"/><path class="cls-4" d="M43.108,35.128c0,.0787,0,.1073-.1.1073-.2217,0-.2789.05-.3075.2717a1.7558,1.7558,0,0,0,0,.2v2.56c0,.2645,0,.3575.3576.4076,0,0,.05.0429.0786.0643H41.8924l-.1144-.0429.1073-.0715h.1287a.4142.4142,0,0,0,.1573-.1788,1.07,1.07,0,0,0,0-.3074V35.6071a.0786.0786,0,0,0,0-.0644l-.1359.3432c-.35.9368-.715,1.8735-1.0439,2.8031,0,.0429-.0644.0715-.093.1072a.7193.7193,0,0,1-.0858-.1144l-.4862-1.2442-.4577-1.18c-.0929-.2431-.193-.4863-.3074-.7151V38.224c0,.3217.0715.4075.3861.4648.0357,0,.0572,0,.0858.0572s-.0572.0429-.0858.0429h-.8438a.1113.1113,0,0,1-.0858-.0429c-.0286-.0429.05-.0572.0787-.0715a1.5009,1.5009,0,0,0,.2145-.0787.35.35,0,0,0,.1215-.3289V35.5928c0-.2646-.0715-.3218-.4075-.3575a.1577.1577,0,0,1,0-.0573v-.0572h.8723s.0644.0429.0715.0715c.2861.7151.5649,1.4874.8509,2.2382.0787.2145.1645.429.2646.665l.2646-.7151.3861-1.0511c.1359-.379.2789-.758.4219-1.137a.1144.1144,0,0,1,.0786-.0715Zm-.4576.1h-.3a.1072.1072,0,0,0-.1.1716.3311.3311,0,0,1,.0572.15c0,1.03.0429,2.0665,0,3.0961h.3718a2.9374,2.9374,0,0,1-.0572-.429V35.6428a3.0893,3.0893,0,0,1,.0214-.4147Zm-3.1748,0v.0358l.1.1144c.0429.0429.1144.0715.1287.1215.2431.6078.4791,1.2156.715,1.8234l.5149,1.33c.0643-.2074.2216-.379.05-.5792v-.0357l-1.03-2.7172a.1122.1122,0,0,0-.0715-.0858Zm.1358,3.4609-.0786-.1788-.093.1573Z"/><path class="cls-5" d="M21.5993,35.1208h.9867c-.0429.0572-.0572.1073-.0929.1216a.55.55,0,0,0-.3075.3575c-.2288.7151-.4576,1.43-.6793,2.1452-.1.3361-.2.665-.3075,1.0011a.3686.3686,0,0,1-.0715.0786s-.0643-.05-.0715-.0858c-.1215-.3432-.236-.715-.35-1.03-.1573-.4648-.3146-.9367-.479-1.43a.2089.2089,0,0,0-.043-.1144c-.05.143-.0929.2646-.1287.379l-.5,1.7733-.1287.4219a.208.208,0,0,1-.0787.0787s-.0572-.0429-.0643-.0715c-.2574-.7151-.5149-1.5016-.7651-2.26l-.3432-1.03a.336.336,0,0,0-.2432-.2359c-.0858,0-.0858-.0644-.0643-.1288h1.1441c-.0429.0572-.0715.1073-.1.1144-.1717,0-.2217.0787-.1645.2932s.1.3361.1573.5077l.6078,1.7805a.8831.8831,0,0,0,.0429.1287c.05-.1359.093-.2574.1287-.3718.1645-.5149.3218-1.03.4862-1.5445a.121.121,0,0,0,0-.0715c-.0715-.186-.1287-.3719-.2073-.5435,0-.0643-.1144-.1072-.1645-.1573l-.0934-.1135H20.899c0,.0858,0,.1287-.0858.1144-.2431,0-.3.1073-.236.3075l.3647,1.2013c.1144.3646.2288.715.35,1.1011l.0357.0715c.0429-.1287.0858-.2359.1144-.3432.186-.6006.379-1.2013.5578-1.8019a.7189.7189,0,0,0,.0429-.1788.3.3,0,0,0-.3361-.3575C21.6136,35.2353,21.5778,35.2138,21.5993,35.1208Zm-3.4323.1c.0572.1287.1287.25.1788.3861l.9581,2.86.0572.1358a.8718.8718,0,0,1,.0787-.2717.6165.6165,0,0,0,.0644-.2359.717.717,0,0,0-.1-.2217h0l-.6721-2.0451a.8369.8369,0,0,1-.0644-.5863Zm1.8162,0a1.959,1.959,0,0,1,.2432.808v.0357a1.429,1.429,0,0,1,.0929.1788l.7156,2.21.05.143.1645-.5148a1.3643,1.3643,0,0,1-.1216-.2l-.715-2.1451a.5786.5786,0,0,1,0-.4862Zm2.3526,0h-.2932l.1144.2359Z"/><path class="cls-6" d="M34.4416,38.6818h.1859a.25.25,0,0,0,.236-.2574V37.03H33.2049v1.3086c0,.2717.0573.3.3361.35a.8361.8361,0,0,0,.0858.0572v.0357H32.3822a.1221.1221,0,0,1-.0929-.0429c-.0286-.0429.05-.05.0786-.0572a1.101,1.101,0,0,0,.2145-.0787.2431.2431,0,0,0,.1073-.143,1.616,1.616,0,0,0,0-.3217V35.4426a.2573.2573,0,0,0-.2789-.2073h-.1144v-.1145h1.3157c0,.1073,0,.1145-.0929.1145-.2145,0-.2932.0643-.3.2788V36.887h1.6733a.5485.5485,0,0,0,0-.1072V35.507c0-.1931-.0858-.2646-.3218-.2717-.0858,0-.1287,0-.1073-.1216h1.3372c0,.0787,0,.1216-.0858.1216-.2574,0-.3289.0786-.3289.3432v2.6957c0,.2932.0429.3432.3289.4005a.3822.3822,0,0,1,.0929.05.2.2,0,0,1-.0929.05h-1.187C34.4559,38.7748,34.42,38.7605,34.4416,38.6818Zm-1.2943,0a3.6805,3.6805,0,0,1-.0643-.4791V35.8573a1.03,1.03,0,0,1,.1-.6149h-.4576a1.8964,1.8964,0,0,1,.0715.3933v2.5527a.8017.8017,0,0,1-.1073.4934Zm1.7734-3.4394c0,.1716.0572.3361.0643.4934v2.3025a1.0082,1.0082,0,0,1-.1072.6149h.45a2.6606,2.6606,0,0,1-.0858-.4076V35.6428a2.7425,2.7425,0,0,1,.0644-.4218Z"/><path class="cls-6" d="M48.4924,35.2281v-.1144H49.808c0,.0858,0,.1216-.0929.1216-.2288,0-.3.0572-.3075.2788V36.88h1.6947V35.507c0-.2-.0858-.2646-.3146-.2717-.0787,0-.1359,0-.1073-.1216h1.2945c0,.1073,0,.1144-.0859.1144-.2288,0-.3146.0858-.3146.3218v2.7672c0,.2288.0572.286.3289.3361a.3.3,0,0,1,.093.05.7211.7211,0,0,1-.1073.05H50.6661c-.0429-.0786,0-.0929.0572-.1.2789-.0429.35-.093.3575-.3289V36.98H49.3933v1.2156c0,.3146,0,.4218.3647.4576l.093.093H48.4849c-.0286,0,.0429-.0572.0715-.0644a1.165,1.165,0,0,0,.2217-.0787.265.265,0,0,0,.1072-.1787V35.7429a2.2208,2.2208,0,0,0,0-.3074c0-.1216-.143-.2-.3-.2Zm.8652,3.4323a3.5556,3.5556,0,0,1-.0644-.472V35.8573a1.1078,1.1078,0,0,1,.1073-.6363h-.4577a1.8967,1.8967,0,0,1,.0715.3932v2.5242a.8218.8218,0,0,1-.1.5219Zm2.1809,0a2.6922,2.6922,0,0,1-.0644-.4291V35.6571a2.9031,2.9031,0,0,1,.0644-.4361h-.4076a4.46,4.46,0,0,1,.0572.5219v2.3526a.9364.9364,0,0,1-.1073.572Z"/><path class="cls-7" d="M36.4294,38.8034h-.0929V37.6021c.1,0,.1287,0,.1358.0858a1.4937,1.4937,0,0,0,.2646.7722.8008.8008,0,0,0,1.1239.1391h0l.0129-.01a.5858.5858,0,0,0,.1859-.4.8367.8367,0,0,0-.4576-.8223c-.2646-.1859-.5434-.35-.808-.5363a.9942.9942,0,0,1-.1931-1.5159,1.0154,1.0154,0,0,1,.9082-.2145,1.7517,1.7517,0,0,1,.4719.1859c.15.0715.1931.0572.2288-.1s.0572-.1.1216-.0787V36.172c-.1144.05-.143,0-.15-.1a1.0582,1.0582,0,0,0-.35-.7151.6435.6435,0,1,0-.7794,1.0154c.25.1787.522.3361.7794.5148a1.43,1.43,0,0,1,.615.6078.9367.9367,0,0,1-.522,1.3086,1.3231,1.3231,0,0,1-1.2085-.1144h-.0643c-.1216-.0573-.1573,0-.1931.0929Zm.3147-3.468h0a.8007.8007,0,0,0-.1073,1.1083,3.7977,3.7977,0,0,0,.5792.4862c.193.143.4147.2574.6078.4076a.8581.8581,0,0,1,.2475,1.188c-.0126.0192-.026.038-.04.0562h0a.3638.3638,0,0,0,.1216-.05.8724.8724,0,0,0,.25-1.0153,1.3082,1.3082,0,0,0-.5292-.5506c-.286-.2-.5863-.379-.8723-.5721a.7648.7648,0,0,1-.329-.715,2.3819,2.3819,0,0,1,.0858-.3Zm-.1288,3.139h0l-.1716-.3646v.3789Zm1.4874-3.0175.143.2789v-.3075Z"/><path class="cls-7" d="M52.5682,38.7891v-1.187h.1072a5.519,5.519,0,0,0,.1573.6149.8008.8008,0,0,0,1.2514.3861.6517.6517,0,0,0,.2-.3861.7866.7866,0,0,0-.4148-.8294c-.2788-.186-.572-.3576-.8437-.5578a1.0082,1.0082,0,0,1-.32-1.3894h0l.0268-.0406a.88.88,0,0,1,.7151-.35,1.0586,1.0586,0,0,1,.715.1788l.0787.0429c.1072.0572.1716,0,.193-.1s.05-.1144.1287-.093V36.172c-.1215.05-.143,0-.1573-.093a1.0151,1.0151,0,0,0-.3432-.715.6458.6458,0,1,0-.7866,1.0082c.2217.1573.4577.3.7151.45a1.6721,1.6721,0,0,1,.715.665.9437.9437,0,0,1-.4107,1.27.9535.9535,0,0,1-.1255.0531,1.3513,1.3513,0,0,1-1.2013-.1215H52.89c-.0858-.0358-.15-.0358-.1644.0858S52.6611,38.832,52.5682,38.7891Zm.4147-3.4537h0a.7936.7936,0,0,0-.1073,1.1083,3.2122,3.2122,0,0,0,.5792.4862c.1931.143.4147.2574.6007.4076a.851.851,0,0,1,.2562,1.1758q-.0228.0354-.0489.0684h0a.3638.3638,0,0,0,.1216-.05.8581.8581,0,0,0,.25-1.0153,1.23,1.23,0,0,0-.5291-.5506c-.286-.2-.5863-.379-.8652-.5721a.7147.7147,0,0,1-.3289-.715,1.5462,1.5462,0,0,1,.0786-.3h0Zm-.1287,3.139h0l-.1716-.3646v.3789ZM54.32,35.4569l.1359.2717v-.3432Z"/><path class="cls-2" d="M31.6672,35.1137h.0786v1.1655h-.15c-.0429-.1573-.0787-.3146-.1287-.4648a.93.93,0,0,0-.8509-.665.98.98,0,0,0-1.1576.7612l-.0008.004a3.18,3.18,0,0,0-.1287,1.4873,1.9012,1.9012,0,0,0,.3.9152,1.0439,1.0439,0,0,0,1.4441.3066h0q.0255-.0167.05-.0348a.9867.9867,0,0,0,.4219-.7651,1.8379,1.8379,0,0,1,0-.2073s.0787-.05.15-.093v1.28c-.0715,0-.1287,0-.1287-.1a.1435.1435,0,0,0-.2574-.1216,1.6373,1.6373,0,0,1-1.9521,0,1.6944,1.6944,0,0,1-.5721-1.0368,2.7383,2.7383,0,0,1,.1144-1.3729,1.5659,1.5659,0,0,1,1.6456-1.1085,1.4729,1.4729,0,0,1,.715.2575,1.2585,1.2585,0,0,0,.2217.1072ZM29.758,38.6031h0l-.1359-.15a1.8946,1.8946,0,0,1-.4-1.0368,2.8027,2.8027,0,0,1,.4076-2.0236h0a3.0808,3.0808,0,0,0-.3575.3217,1.73,1.73,0,0,0-.379.98,2.26,2.26,0,0,0,.2574,1.3943A1.1363,1.1363,0,0,0,29.758,38.6031Zm1.852-2.7458v-.4l-.143.0429Zm0,2.1881-.143.3218h.143Z"/><path class="cls-2" d="M45.2532,36.172V35.1137h2.86V36.172h-.1216v-.25a1.0293,1.0293,0,0,0-.1716-.5148.6573.6573,0,0,0-.4576-.1859,3.7157,3.7157,0,0,0-.4005,0v2.9531c0,.3647.0716.4433.4291.4863a.3249.3249,0,0,1,.0929.0572.2681.2681,0,0,1-.1.0429H45.9682a.2422.2422,0,0,1-.1072-.05v-.0429h.2216a.3218.3218,0,0,0,.3075-.3,1.4035,1.4035,0,0,0,0-.1716v-2.96a1.5374,1.5374,0,0,0-.7151.0786.5646.5646,0,0,0-.2788.4576.8011.8011,0,0,1-.0572.3576c-.0572.1215-.05.0643-.0787.1Zm1.5945-.972h-.2788v2.9031a.8652.8652,0,0,1-.1359.5363h.5506a.6081.6081,0,0,1-.1359-.4433Zm.9225,0,.2574.3432V35.2Zm-2.4026.379.2645-.3719h-.2645Z"/><path class="cls-2" d="M27.1481,35.2281v2.96c0,.3647.0715.45.429.4863.0572,0,.1144,0,.0858.0929H26.09l.0929-.0929a.1643.1643,0,0,1,.0858,0c.35,0,.3933-.1931.3933-.4434V35.3068a.6458.6458,0,0,0,0-.0787,2.2158,2.2158,0,0,0-.6149.0572.63.63,0,0,0-.3933.5.8511.8511,0,0,1-.05.35c-.05.1144,0,.0787-.1287.0787v-1.1h2.86V36.172h-.1215a.5916.5916,0,0,0-.0358-.25.95.95,0,0,0-.1859-.5291.7145.7145,0,0,0-.4719-.1716A3.1361,3.1361,0,0,0,27.1481,35.2281Zm-.379,0v2.6957a1.2814,1.2814,0,0,1-.1287.7151h.5434a.6222.6222,0,0,1-.1359-.45V35.221Zm1.4873,0h-.2932l.2646.3432ZM25.5678,35.6l.2646-.3718h-.2646Z"/><path class="cls-4" d="M25.6178,38.7676H24.3737s.05-.0643.0786-.0715c.3575-.0858.3647-.093.236-.45s-.1859-.5148-.286-.7651a.1146.1146,0,0,0-.0858-.0643h-1.23a7.7955,7.7955,0,0,0-.2789.7794c-.0858.3432,0,.4362.3432.5005a.8361.8361,0,0,0,.0858.0572v.0358h-1.001c0-.0429,0-.1.05-.1073.236-.0858.3075-.2932.3861-.4862.1788-.4434.35-.8938.522-1.3372l.6078-1.63a.3054.3054,0,0,1,0-.0715l.0787-.0787a.6381.6381,0,0,1,.0643.0787l.3218.808.9653,2.4026a.4365.4365,0,0,0,.286.2932S25.5749,38.7176,25.6178,38.7676Zm-1.68-3.4823h0a2.0374,2.0374,0,0,0-.1216.3289c0,.0572.0572.1216.0858.1859h0c.1788.5006.35,1.0011.5363,1.4945.1144.3075.236.6006.3575.901a.5143.5143,0,0,1,0,.4576h.5149a2.7637,2.7637,0,0,1-.1716-.3218c-.3-.7722-.6007-1.5445-.9082-2.3239Zm-.1931.4576L23.1581,37.28h1.1584Zm-1.0583,2.6743-.1715.2428h.3Z"/><path class="cls-6" d="M43.5156,35.2281v-.1144h1.3085c0,.1073,0,.1144-.0929.1144-.2145,0-.2789.0644-.3.2789v2.81c0,.286.0643.3218.3432.3719a.2981.2981,0,0,1,.0858.0572v.0429h-1.223a.922.922,0,0,1-.1288-.0429,1.0579,1.0579,0,0,1,.1216-.0715.1835.1835,0,0,0,.1716-.0644.2431.2431,0,0,0,.1073-.143,1.5875,1.5875,0,0,0,0-.3218V35.45a.25.25,0,0,0-.2431-.2074Zm.8581,3.4323a4.0267,4.0267,0,0,1-.0572-.5149v-2.424a3.8239,3.8239,0,0,1,.0643-.5h-.4147a2.4252,2.4252,0,0,1,.0643.3861v2.5813a3.27,3.27,0,0,1-.0572.472Z"/><path class="cls-8" d="M25.8967,48.0418a19.7917,19.7917,0,0,1-9.2957.4934,19.4211,19.4211,0,0,1-10.89-5.9278A19.3059,19.3059,0,0,1,.3622,30.1512,19.2207,19.2207,0,0,1,4.2163,17.18,19.7928,19.7928,0,0,1,25.8681,9.9367a19.05,19.05,0,0,0-16.26,4.0687A19.0187,19.0187,0,0,0,2.4716,29.1645,19.0273,19.0273,0,0,0,9.7508,44.1162,19.1886,19.1886,0,0,0,25.8967,48.0418Z"/><path class="cls-9" d="M17.9024,28.9785a4.2907,4.2907,0,0,1,.0572-.5219c.093-.5077.1931-1.0154.2861-1.5231.1287-.715.2431-1.43.3646-2.1452s.2789-1.63.4148-2.4454l.3861-2.2667c.15-.8724.3-1.7448.4433-2.6171.1144-.6507.2217-1.2943.329-1.9378h0V26.483c0,.0787,0,.1073.1.1073a1.19,1.19,0,0,1,.3575,0,7.6926,7.6926,0,0,0,1.43.1358.1785.1785,0,0,0,.1859.1287c.7151.0358,1.473.0859,2.2024.1288l1.6017.1,2.045.1215,1.6232.1,2.0379.1287,2.045.1573,1.6232.1,2.0379.1215,2.0594.1359,2.0093.1215,1.63.1,2.0808.1359,2.0021.1216,2.0522.1287,1.616.1,2.0451.1287,1.58.0929,1.2514.0715H21.542v-.1358a1.3014,1.3014,0,0,0-2.5956.1358Z"/><path class="cls-10" d="M21.5134,28.9785H55.7716l-1.8735.1073-2.0522.1287-1.5874.143-2.0522.1287-1.63.1-2.0379.15-2.0093.1287-1.63.1-2.0808.093-1.5874.1-1.9879.1287-1.6088.1-2.0522.1287-1.6017.1-2.0379.1216-2.0451.1287-2.0236.1215-2.0236.1288a3.0818,3.0818,0,0,0-.6793.05c-.2216.05-.3361.093-.5077.1287a2.31,2.31,0,0,1-2.69-1.8525q-.0117-.0638-.02-.1282v-.3361h.9939a.7854.7854,0,0,0,.0358.2861,1.294,1.294,0,0,0,1.5332.9993h0q.0272-.0057.054-.0126A1.3155,1.3155,0,0,0,21.5134,28.9785Z"/><path class="cls-8" d="M22.1284,26.7619a7.6927,7.6927,0,0,1-1.43-.1359,1.1967,1.1967,0,0,0-.3575,0c-.0787,0-.1144,0-.1-.1072V15.507c.05.2574.1.522.143.7794l.3646,2.1451c.1288.7723.2646,1.5445.3933,2.3168l.6007,3.5252c.1358.7866.2645,1.5731.4,2.36A.2007.2007,0,0,0,22.1284,26.7619Z"/><path class="cls-9" d="M55.5142,41.4705v.2074H18.0025v-.2074Z"/><path class="cls-11" d="M42.6432,35.2281a3.09,3.09,0,0,0-.0643.4147V38.217a2.9374,2.9374,0,0,0,.0572.429h-.3718c.0786-1.03,0-2.0665,0-3.0961a.3309.3309,0,0,0-.0573-.15.1073.1073,0,0,1,.1-.1716Z"/><path class="cls-12" d="M39.4684,35.2067H39.84a.33.33,0,0,1,.0715.0858l1.0512,2.7243v.0358c.1716.2,0,.3718-.05.5792l-.5148-1.33c-.236-.6078-.472-1.2156-.7151-1.8234,0-.05-.0858-.0787-.1287-.1216l-.1-.1144Z"/><path class="cls-13" d="M39.6043,38.6675h-.2l.093-.1573Z"/><path class="cls-12" d="M18.167,35.221H18.66a.8363.8363,0,0,0,.0643.5863l.6722,2.045h0a.7181.7181,0,0,1,.1.2217.613.613,0,0,1-.0644.236,1.5106,1.5106,0,0,1-.0786.2717l-.0572-.1359-.9582-2.86C18.2957,35.4569,18.2242,35.35,18.167,35.221Z"/><path class="cls-12" d="M19.9832,35.221h.5006a.5786.5786,0,0,0,0,.4862l.715,2.1451a1.3643,1.3643,0,0,0,.1216.2l-.1645.5148-.05-.143-.7151-2.21a1.429,1.429,0,0,0-.0929-.1788V36A1.9582,1.9582,0,0,0,19.9832,35.221Z"/><path class="cls-13" d="M22.3715,35.221l-.2145.2359-.1144-.2359Z"/><path class="cls-14" d="M33.1473,38.66h-.45a.8009.8009,0,0,0,.1072-.4934V35.6142a1.8967,1.8967,0,0,0-.0715-.3932h.4576a1.03,1.03,0,0,0-.1.6149v2.3454A3.6858,3.6858,0,0,0,33.1473,38.66Z"/><path class="cls-14" d="M34.9207,35.221h.4075a2.73,2.73,0,0,0-.0643.4218v2.6028a2.6406,2.6406,0,0,0,.0643.4148h-.45a1.0084,1.0084,0,0,0,.1072-.615V35.7429C34.9779,35.557,34.9421,35.3926,34.9207,35.221Z"/><path class="cls-14" d="M49.3576,38.66h-.45a.8234.8234,0,0,0,.1-.522V35.6142a1.8967,1.8967,0,0,0-.0715-.3932h.4576a1.1077,1.1077,0,0,0-.1072.6363v2.3311A3.5579,3.5579,0,0,0,49.3576,38.66Z"/><path class="cls-14" d="M51.5385,38.66h-.45a.9368.9368,0,0,0,.1073-.5721V35.7358a4.4815,4.4815,0,0,0-.0573-.522h.4076a2.919,2.919,0,0,0-.0643.4362v2.5742A2.6758,2.6758,0,0,0,51.5385,38.66Z"/><path class="cls-15" d="M36.73,35.364a2.3657,2.3657,0,0,0-.0859.3.7648.7648,0,0,0,.329.715c.286.1931.5863.3719.8723.5721a1.3082,1.3082,0,0,1,.5292.5506.8724.8724,0,0,1-.2717,1.0439.3638.3638,0,0,1-.1216.05h0a.858.858,0,0,0-.1512-1.2039h0c-.0181-.0142-.0369-.0276-.0562-.04-.193-.15-.4147-.2646-.6078-.4076a3.7977,3.7977,0,0,1-.5792-.4862A.8007.8007,0,0,1,36.694,35.35Z"/><path class="cls-16" d="M36.6149,38.4744h-.164v-.3789l.1716.3646Z"/><path class="cls-16" d="M38.1027,35.4569h.143v.3075Z"/><path class="cls-15" d="M52.9614,35.364a1.5462,1.5462,0,0,0-.0786.3.7147.7147,0,0,0,.3289.715c.2789.1931.5792.3719.8652.5721a1.23,1.23,0,0,1,.5291.5506.8581.8581,0,0,1-.25,1.0153.3659.3659,0,0,1-.1216.05h0a.8509.8509,0,0,0-.1389-1.1953c-.022-.0174-.0449-.0337-.0684-.0489-.186-.15-.4076-.2646-.6007-.4076a3.2122,3.2122,0,0,1-.5792-.4862.7936.7936,0,0,1,.1073-1.1083Z"/><path class="cls-16" d="M52.8542,38.4744h-.1716v-.3789l.1716.3646Z"/><path class="cls-16" d="M54.32,35.4569l.1359-.0357v.3074Z"/><path class="cls-12" d="M29.6364,35.3854a2.8031,2.8031,0,0,0-.4075,2.0236,1.8943,1.8943,0,0,0,.4,1.0368l.1358.15h0a1.1372,1.1372,0,0,1-.6077-.5291A2.26,2.26,0,0,1,28.9,36.6723a1.73,1.73,0,0,1,.379-.98,3.0817,3.0817,0,0,1,.3575-.3218Z"/><path class="cls-17" d="M31.61,35.8573l-.143-.336.143-.0429Z"/><path class="cls-16" d="M31.6171,38.0454v.3575h-.143Z"/><path class="cls-11" d="M46.8263,35.221v2.996a.6075.6075,0,0,0,.1358.4433h-.55a.8655.8655,0,0,0,.1358-.5362V35.221Z"/><path class="cls-17" d="M47.7487,35.2138h.286v.3432Z"/><path class="cls-17" d="M45.3461,35.5928V35.221h.2646Z"/><path class="cls-11" d="M26.7691,35.221h.2788V38.21a.6222.6222,0,0,0,.1359.45h-.522a1.28,1.28,0,0,0,.1287-.7151V35.221Z"/><path class="cls-17" d="M28.2564,35.2138v.3432l-.2646-.3432Z"/><path class="cls-17" d="M25.5678,35.5856v-.3718h.2646Z"/><path class="cls-12" d="M23.9375,35.2853l.286.7151c.2932.7937.6078,1.6017.9081,2.3167a2.779,2.779,0,0,0,.1716.3218h-.5148a.5149.5149,0,0,0,0-.4576c-.1216-.3-.2431-.5935-.3575-.901-.186-.4934-.3576-.9939-.5363-1.4945h0c0-.0643-.093-.1287-.0858-.1859a2.037,2.037,0,0,1,.1215-.3289Z"/><path class="cls-13" d="M22.6861,38.4172l.1287.2432h-.3Z"/><path class="cls-14" d="M44.3737,38.66h-.4a3.27,3.27,0,0,0,.0572-.472V35.6071a2.4252,2.4252,0,0,0-.0643-.3861h.4147a3.8239,3.8239,0,0,0-.0643.5v2.424A4.0115,4.0115,0,0,0,44.3737,38.66Z"/><path class="cls-18" d="M21.5134,28.9785a1.3156,1.3156,0,0,1-.9939,1.2728,1.2942,1.2942,0,0,1-1.5748-.9327h0q-.0069-.0268-.0126-.054a.7872.7872,0,0,0-.0357-.286,1.3014,1.3014,0,0,1,2.5956-.1359Zm-1.287,1.2085a1.18,1.18,0,0,0,.0015-2.36h-.0015a1.2085,1.2085,0,0,0-1.2228,1.194h0a1.1942,1.1942,0,0,0,1.2221,1.1655Z"/></g></g></g></g></svg>